<mxfile host="65bd71144e">
    <diagram id="G-KGwp4HOYbtR8MHwtQG" name="第 1 页">
        <mxGraphModel dx="413" dy="179" grid="1" gridSize="10" guides="1" tooltips="1" connect="1" arrows="1" fold="1" page="1" pageScale="1" pageWidth="1169" pageHeight="827" background="#ffffff" math="0" shadow="0">
            <root>
                <mxCell id="0"/>
                <mxCell id="1" parent="0"/>
                <mxCell id="5" value="" style="whiteSpace=wrap;html=1;fillColor=none;strokeColor=#1A1A1A;strokeWidth=2;rounded=1;" parent="1" vertex="1">
                    <mxGeometry x="362" y="280" width="360" height="340" as="geometry"/>
                </mxCell>
                <mxCell id="82" style="edgeStyle=none;html=1;shape=link;strokeColor=#1A1A1A;strokeWidth=2;" edge="1" parent="1" source="9" target="36">
                    <mxGeometry relative="1" as="geometry"/>
                </mxCell>
                <mxCell id="9" value="" style="shape=image;verticalLabelPosition=bottom;verticalAlign=top;imageAspect=0;aspect=fixed;image=data:image/svg+xml,PHN2ZyB4bWxucz0iaHR0cDovL3d3dy53My5vcmcvMjAwMC9zdmciIHhtbG5zOnhsaW5rPSJodHRwOi8vd3d3LnczLm9yZy8xOTk5L3hsaW5rIiB0PSIxNjQ1MzYwNTA1Nzk3IiBjbGFzcz0iaWNvbiIgdmlld0JveD0iMCAwIDEwMjQgMTAyNCIgdmVyc2lvbj0iMS4xIiBwLWlkPSI0NjY0IiB3aWR0aD0iMjAwIiBoZWlnaHQ9IjIwMCI+PGRlZnM+PHN0eWxlIHR5cGU9InRleHQvY3NzIi8+PC9kZWZzPjxwYXRoIGQ9Ik05NjQuMDY0IDY1MS4wNEw4OTQuNTYgMTkwLjc4NEM4OTEuODQgMTU2LjE5MiA4NjEuMzQ0IDEyOCA4MjQuNjcyIDEyOEgyMDMuNjhhNzAuMzM2IDcwLjMzNiAwIDAgMC03MC4xMTIgNjQuNjRMNjQuMzIgNjQwLjkyOGwtMC4zMiA0Ljg5NiAzLjM5MiAxNTguNDY0IDAuODk2IDMuMzI4YTcwLjMwNCA3MC4zMDQgMCAwIDAgNjcuODcyIDUxLjkzNmg3NTYuNTQ0YzMxLjI5NiAwIDU4Ljg0OC0yMC43MDQgNjcuNTUyLTUwLjc1MmwxLjA1Ni0zLjU4NCAzLjA0LTE0OS40MDgtMC4yODgtNC43Njh6TTE4OS4zNzYgMTk5LjJjMC44MzItOS4zNDQgNi45NDQtMTQuOTc2IDE0LjI3Mi0xNC45NzZIODI0LjY0YTE0LjA4IDE0LjA4IDAgMCAxIDE0LjAxNiAxMi45Nmw2Mi4yMDggNDEyLjE2SDEyNi4xMTJMMTg5LjM3NiAxOTkuMnogbTcxNS44NzIgNTk2LjQ4YTE0LjA4IDE0LjA4IDAgMCAxLTEyLjUxMiA3LjYxNkgxMzYuMTkyYTE0LjA4IDE0LjA4IDAgMCAxLTEyLjcwNC04bC0yLjgxNi0xMjkuNjY0aDc4Ny4yMzJsLTIuNjU2IDEzMC4wNDh6IiBwLWlkPSI0NjY1IiBmaWxsPSIjMUExQTFBIi8+PHBhdGggZD0iTTc1My4yMTYgNzc1LjAwOGg4NC4zNTJhMjguMTYgMjguMTYgMCAwIDAgMC01Ni4yNTZoLTg0LjM1MmEyOC4xNiAyOC4xNiAwIDAgMCAwIDU2LjI1NnpNNjQwLjczNiA3NzUuMDA4aDE0LjA0OGEyOC4xNiAyOC4xNiAwIDAgMCAwLTU2LjI1NmgtMTQuMDQ4YTI4LjE2IDI4LjE2IDAgMCAwIDAgNTYuMjU2ek01MjguMjU2IDc3NS4wMDhoMTQuMDQ4YTI4LjE2IDI4LjE2IDAgMCAwIDAtNTYuMjU2aC0xNC4wNDhhMjguMTYgMjguMTYgMCAwIDAgMCA1Ni4yNTZ6IiBwLWlkPSI0NjY2IiBmaWxsPSIjMUExQTFBIi8+PC9zdmc+;sketch=0;" parent="1" vertex="1">
                    <mxGeometry x="242" y="386" width="56" height="56" as="geometry"/>
                </mxCell>
                <mxCell id="10" value="" style="shape=image;verticalLabelPosition=bottom;verticalAlign=top;imageAspect=0;aspect=fixed;image=data:image/svg+xml,PHN2ZyB4bWxucz0iaHR0cDovL3d3dy53My5vcmcvMjAwMC9zdmciIHhtbG5zOnhsaW5rPSJodHRwOi8vd3d3LnczLm9yZy8xOTk5L3hsaW5rIiB0PSIxNjQ1MzYwNTg0NzY3IiBjbGFzcz0iaWNvbiIgdmlld0JveD0iMCAwIDEwMjQgMTAyNCIgdmVyc2lvbj0iMS4xIiBwLWlkPSI1Njk4IiB3aWR0aD0iMjAwIiBoZWlnaHQ9IjIwMCI+PGRlZnM+PHN0eWxlIHR5cGU9InRleHQvY3NzIi8+PC9kZWZzPjxwYXRoIGQ9Ik05MDkuOTg5IDM0My4yODFjLTIxLjc2LTUxLjQ0Ni01Mi45MDQtOTcuNjQzLTkyLjU2OC0xMzcuMzA3LTM5LjY2My0zOS42NjQtODUuODYtNzAuODA4LTEzNy4zMDYtOTIuNTY4LTUzLjI4LTIyLjUzNi0xMDkuODU4LTMzLjk2Mi0xNjguMTY0LTMzLjk2MlMzOTcuMDY3IDkwLjg3IDM0My43ODcgMTEzLjQwNmMtNTEuNDQ2IDIxLjc2LTk3LjY0MyA1Mi45MDQtMTM3LjMwNyA5Mi41NjgtMzkuNjY0IDM5LjY2NC03MC44MDggODUuODYtOTIuNTY4IDEzNy4zMDctMjIuNTM2IDUzLjI4LTMzLjk2MiAxMDkuODU4LTMzLjk2MiAxNjguMTY0czExLjQyNiAxMTQuODg0IDMzLjk2MiAxNjguMTY0YzIxLjc2IDUxLjQ0NSA1Mi45MDQgOTcuNjQzIDkyLjU2OCAxMzcuMzA2IDM5LjY2NCAzOS42NjQgODUuODYgNzAuODA5IDEzNy4zMDcgOTIuNTY4IDUzLjI4IDIyLjUzNSAxMDkuODU4IDMzLjk2MiAxNjguMTY0IDMzLjk2MnMxMTQuODg0LTExLjQyNyAxNjguMTY0LTMzLjk2MmM1MS40NDUtMjEuNzYgOTcuNjQzLTUyLjkwNCAxMzcuMzA2LTkyLjU2OCAzOS42NjQtMzkuNjYzIDcwLjgwOS04NS44NiA5Mi41NjgtMTM3LjMwNiAyMi41MzUtNTMuMjggMzMuOTYyLTEwOS44NTggMzMuOTYyLTE2OC4xNjRzLTExLjQyNy0xMTQuODg0LTMzLjk2Mi0xNjguMTY0ek01NDMuOTUxIDM3Ni4wM2MxNy41Ny0wLjI0MyAzNS4wOTUtMC42ODMgNTIuNTM2LTEuMzY4YTE5OTAuNzYyIDE5OTAuNzYyIDAgMCAwIDkxLjEzMS01LjY3OGMxMC4xNTcgMzQuMzc4IDE2LjY0MyA3MS4zMTQgMTkuMzg5IDExMC40Nkg1NDMuOTUxVjM3Ni4wM3ogbTAtNjQuMDY5VjE2My40MWMxNy42MTcgMTIuMTc2IDM5LjM3MiAyOS44NDUgNjEuMDc0IDU0LjE5NyAyMy40MiAyNi4yOCA0My4xMDkgNTYuMTM4IDU4Ljc4NCA4OS4wMTktNDEuOTM3IDMuMTQ3LTgyLjExNyA0Ljc4My0xMTkuODU4IDUuMzM1eiBtLTY0LTE0NC43NjN2MTQ0LjcwNWEyMDM4LjU3MiAyMDM4LjU3MiAwIDAgMS0xMDMuNDEtNC4zMDkgMTkyOS42IDE5MjkuNiAwIDAgMS0xMS4xODMtMC43ODZjMTUuMTk1LTMxLjkxNSAzNC4xNzUtNjAuOTkxIDU2LjY3Ni04Ni43MTEgMjAuMjg0LTIzLjE4NSA0MC43MjItNDAuNDkgNTcuOTE3LTUyLjg5OXpNMzcwLjg0MiAzNzEuMzU0YTIxMjQuMzAxIDIxMjQuMzAxIDAgMCAwIDEwOS4xMDkgNC42MDZ2MTAzLjQ4NEgzMjIuMjVjMi43NDItMzkuMDc5IDkuMjA4LTc1Ljk2IDE5LjMzNS0xMTAuMjg1IDkuNDUzIDAuNzc2IDE5LjIxIDEuNTEyIDI5LjI1NyAyLjE5NXogbS0xMTIuNzMxIDEwOC4wOUgxNDUuMzQyYzMuOTE2LTQ1Ljc1NyAxNi4yMDgtODkuNzc4IDM2LjEzOS0xMzAuMjc2IDIwLjI1NyAzLjU3OCA1Mi44MzYgOC43NTkgOTUuNDA3IDEzLjY0MS05LjkwMiAzNi42OTktMTYuMTgyIDc1LjY4Mi0xOC43NzcgMTE2LjYzNXogbS0wLjg1OSA2NGMxLjk3NSAzOS4xNDQgOS43MTIgNzguMjQyIDIzLjEwMSAxMTYuNzk5LTQ0LjA5MyA0Ljk3Ni03Ny43OTcgMTAuMzE5LTk4LjYyMSAxMy45OTItMjAuMDgtNDAuNjQtMzIuNDU4LTg0Ljg0MS0zNi4zOS0xMzAuNzkyaDExMS45MXogbTY0LjA5OCAwaDE1OC42MDF2MTA0LjA0OGMtMzYuMzcgMC42MDItNzIuODE4IDIuMTMtMTA5LjEwOSA0LjYwMS04LjQxIDAuNTczLTE2LjYxMiAxLjE4Mi0yNC42MDkgMS44MjEtMTQuMzIyLTM2LjUyMy0yMi42NTktNzMuNTQzLTI0Ljg4My0xMTAuNDd6IG0xNTguNjAxIDE2OC4xMDN2MTMxLjcxMmMtMTYuOTc0LTE1Ljg3Ny0zNi41NzQtMzUuOTYyLTU2LjAzOC01OS43MzUtMTguMDY0LTIyLjA2NC0zMy44OTItNDQuNjk4LTQ3LjM3OS02Ny42NjhhMjAzOC4zOCAyMDM4LjM4IDAgMCAxIDEwMy40MTctNC4zMDl6IG02NCAxMzYuNjY1VjcxMS40ODdjMzQuMzg3IDAuNTAzIDcwLjc4MiAxLjkwMyAxMDguNjggNC41MjctMTMuNDY3IDIyLjkxNS0yOS4yNjMgNDUuNDk2LTQ3LjI4NiA2Ny41MDktMjEuNTQ3IDI2LjMyLTQzLjI2MiA0OC4xMTktNjEuMzk0IDY0LjY4OXogbTUyLjUzNi0xOTkuNDI2YTIwNjMuMTg3IDIwNjMuMTg3IDAgMCAwLTUyLjUzNi0xLjM4NFY1NDMuNDQ0aDE2My45NThjLTIuMjI3IDM2Ljk3NS0xMC41ODIgNzQuMDQ1LTI0LjkzOSAxMTAuNjE1YTE5OTQuOTcyIDE5OTQuOTcyIDAgMCAwLTg2LjQ4My01LjI3M3ogbTE3NS41MjEtMTA1LjM0Mkg4NzguNTZjLTMuOTI4IDQ1Ljg5OC0xNi4yODMgOTAuMDUxLTM2LjMyMiAxMzAuNjUyYTE4MjIuODQgMTgyMi44NCAwIDAgMC05My40NzYtMTMuNDM5YzEzLjQ3OC0zOC42OTEgMjEuMjY0LTc3LjkyOSAyMy4yNDYtMTE3LjIxM3ogbS0wLjg1OS02NGMtMi42MDUtNDEuMTExLTguOTI0LTgwLjIzOC0xOC44OTEtMTE3LjA2MWExODIxLjQ5MSAxODIxLjQ5MSAwIDAgMCA5MC4yMzMtMTMuMDc1YzE5Ljg5IDQwLjQ2IDMyLjE1OCA4NC40MzIgMzYuMDcgMTMwLjEzNkg3NzEuMTQ5eiBtMS4wMTctMjI4LjIxNWEzNzMuMTg4IDM3My4xODggMCAwIDEgMzQuMDQ2IDM5LjE1NSAxNzcyLjg1MyAxNzcyLjg1MyAwIDAgMS03NS4xMTcgOS45OGMtMTkuNTI5LTQ2Ljc4NS00NS44MjUtODguOTEtNzguMjkxLTEyNS4zMzhhNDIzLjg2MyA0MjMuODYzIDAgMCAwLTUuMzg2LTUuOTI3YzQ2LjE4NSAxOC4yNjMgODguNTczIDQ1Ljk1NSAxMjQuNzQ4IDgyLjEzek0zODQuODEgMTY1LjkyM2E0MjAuNzg4IDQyMC43ODggMCAwIDAtOC4zNTUgOS4xMDJjLTMyLjU1MiAzNi41MjUtNTguOTA0IDc4Ljc3NS03OC40NDkgMTI1LjcxLTMyLjM1Ny0zLjQ4NC01OS40OC03LjI0NC04MC4yMjYtMTAuNDY5YTM3My4zODYgMzczLjM4NiAwIDAgMSAzMy45NTYtMzkuMDM3YzM4LjMzOC0zOC4zMzggODMuNjU0LTY3LjE1MiAxMzMuMDc0LTg1LjMwNnpNMjUxLjczNiA3NzEuNjU5YTM3My40NDQgMzczLjQ0NCAwIDAgMS0zMy41ODQtMzguNTQ4YzIyLjUyNi0zLjQ5OCA1Mi41MjktNy42MTQgODguNjI2LTExLjMyOCAxOC4yMjkgMzUuNTQyIDQxLjMxIDcwLjM1NiA2OC44NjcgMTAzLjgwOGE2NzguMDY4IDY3OC4wNjggMCAwIDAgMzUuNzI3IDM5Ljk5NWMtNTkuNzU3LTE2Ljg3NS0xMTQuNTI0LTQ4LjgxNC0xNTkuNjM2LTkzLjkyN3ogbTM2OC4yNDkgOTEuNzQ1YTY3Ny4wMzIgNjc3LjAzMiAwIDAgMCAzMy42MjktMzcuODE0YzI3LjQ2OS0zMy4zNDQgNTAuNDg3LTY4LjA0MyA2OC42ODktMTAzLjQ2NmExNzgwLjMxNSAxNzgwLjMxNSAwIDAgMSA4My41MjggMTAuODggMzczLjM0IDM3My4zNCAwIDAgMS0zMy42NjUgMzguNjU0Yy00My4yMyA0My4yMzItOTUuMzI0IDc0LjM3My0xNTIuMTgxIDkxLjc0NnoiIGZpbGw9IiIgcC1pZD0iNTY5OSIvPjwvc3ZnPg==" parent="1" vertex="1">
                    <mxGeometry x="132" y="386" width="56" height="56" as="geometry"/>
                </mxCell>
                <mxCell id="11" value="" style="edgeStyle=none;html=1;strokeColor=#1A1A1A;shape=link;strokeWidth=2;exitX=1;exitY=0.5;exitDx=0;exitDy=0;entryX=0;entryY=0.5;entryDx=0;entryDy=0;" parent="1" target="9" edge="1">
                    <mxGeometry relative="1" as="geometry">
                        <mxPoint x="188" y="413.52" as="sourcePoint"/>
                        <mxPoint x="232" y="414" as="targetPoint"/>
                    </mxGeometry>
                </mxCell>
                <mxCell id="21" value="" style="edgeStyle=none;html=1;strokeColor=#1A1A1A;strokeWidth=2;endArrow=none;endFill=0;" parent="1" source="12" target="16" edge="1">
                    <mxGeometry relative="1" as="geometry"/>
                </mxCell>
                <mxCell id="38" value="" style="edgeStyle=none;html=1;fontColor=#1A1A1A;strokeColor=#1A1A1A;strokeWidth=2;entryX=1;entryY=0.5;entryDx=0;entryDy=0;endArrow=none;endFill=0;" parent="1" source="12" target="36" edge="1">
                    <mxGeometry relative="1" as="geometry"/>
                </mxCell>
                <mxCell id="39" value="" style="edgeStyle=none;html=1;fontColor=#1A1A1A;strokeColor=#1A1A1A;strokeWidth=2;endArrow=none;endFill=0;" parent="1" source="12" target="28" edge="1">
                    <mxGeometry relative="1" as="geometry"/>
                </mxCell>
                <mxCell id="41" style="edgeStyle=none;html=1;fontColor=#1A1A1A;strokeColor=#1A1A1A;strokeWidth=2;endArrow=none;endFill=0;" parent="1" source="12" edge="1">
                    <mxGeometry relative="1" as="geometry">
                        <mxPoint x="542" y="480" as="targetPoint"/>
                    </mxGeometry>
                </mxCell>
                <mxCell id="12" value="" style="shape=image;verticalLabelPosition=bottom;verticalAlign=top;imageAspect=0;aspect=fixed;image=data:image/svg+xml,PHN2ZyB4bWxucz0iaHR0cDovL3d3dy53My5vcmcvMjAwMC9zdmciIHhtbG5zOnhsaW5rPSJodHRwOi8vd3d3LnczLm9yZy8xOTk5L3hsaW5rIiB0PSIxNjQ1MzYwODU3MTU2IiBjbGFzcz0iaWNvbiIgdmlld0JveD0iMCAwIDEwMjUgMTAyNCIgdmVyc2lvbj0iMS4xIiBwLWlkPSI4MTU4IiB3aWR0aD0iMjAwLjE5NTMxMjUiIGhlaWdodD0iMjAwIj48ZGVmcz48c3R5bGUgdHlwZT0idGV4dC9jc3MiLz48L2RlZnM+PHBhdGggZD0iTTUxMC42MTU2OCAxMDI0Yy0yNzYuMzUyIDAtNTA1LjQwOC0yMjQuODMyLTUxMC41MjgtNTAxLjMxMkMtNS4wOTYzMiAyNDAuMzg0IDIyMC4yNDc2OCA2LjAxNiA1MDIuNDIzNjggMC4wNjRMNTEzLjQzMTY4IDBjMjc2LjQxNiAwIDUwNS40MDggMjI0LjgzMiA1MTAuNTI4IDUwMS4yNDggNS4yNDggMjgyLjE3Ni0yMjAuMDk2IDUxNi42NzItNTAyLjQgNTIyLjYyNEw1MTAuNjE1NjggMTAyNHpNNTEzLjQzMTY4IDY2Ljk0NCA1MDMuODk1NjggNjcuMTM2QzI1OC41MTk2OCA3Mi4yNTYgNjIuNTUxNjggMjc2LjA5NiA2Ny4wOTU2OCA1MjEuNDA4YzQuNDE2IDI0MC4xMjggMjAzLjMyOCA0MzUuNTg0IDQ0My40NTYgNDM1LjU4NGw5LjYtMC4xMjhjMjQ1LjM3Ni01LjE4NCA0NDEuNDA4LTIwOC45NiA0MzYuOC00NTQuMzM2Qzk1Mi41MzU2OCAyNjIuMzM2IDc1My42MjM2OCA2Ni45NDQgNTEzLjQzMTY4IDY2Ljk0NHoiIHAtaWQ9IjgxNTkiLz48cGF0aCBkPSJNNTQwLjI0NzY4IDYyMS45NTIgNjI2LjAwNzY4IDcwNy43MTIgNTgyLjE2NzY4IDc1MS42MTYgNzkyLjQwNzY4IDc5Mi4zMiA3NTEuNzAzNjggNTgyLjA4IDcwNy43OTk2OCA2MjUuOTIgNjIyLjAzOTY4IDU0MC4xNloiIHAtaWQ9IjgxNjAiLz48cGF0aCBkPSJNNDgzLjc5OTY4IDQwMS45MiAzOTguMDM5NjggMzE2LjE2IDQ0MS44Nzk2OCAyNzIuMjU2IDIzMS42Mzk2OCAyMzEuNTUyIDI3Mi4zNDM2OCA0NDEuNzkyIDMxNi4yNDc2OCAzOTcuOTUyIDQwMi4wMDc2OCA0ODMuNzEyWiIgcC1pZD0iODE2MSIvPjxwYXRoIGQ9Ik00MDIuMDA3NjggNTQwLjE2IDMxNi4yNDc2OCA2MjUuOTIgMjcyLjM0MzY4IDU4Mi4wOCAyMzEuNjM5NjggNzkyLjMyIDQ0MS44Nzk2OCA3NTEuNjE2IDM5OC4wMzk2OCA3MDcuNzEyIDQ4My43OTk2OCA2MjEuOTUyWiIgcC1pZD0iODE2MiIvPjxwYXRoIGQ9Ik02MjIuMDM5NjggNDgzLjcxMiA3MDcuNzk5NjggMzk3Ljk1MiA3NTEuNzAzNjggNDQxLjc5MiA3OTIuNDA3NjggMjMxLjU1MiA1ODIuMTY3NjggMjcyLjI1NiA2MjYuMDA3NjggMzE2LjE2IDU0MC4yNDc2OCA0MDEuOTJaIiBwLWlkPSI4MTYzIi8+PC9zdmc+" parent="1" vertex="1">
                    <mxGeometry x="514" y="386" width="56" height="56" as="geometry"/>
                </mxCell>
                <mxCell id="54" style="edgeStyle=none;html=1;fontColor=#1A1A1A;endArrow=none;endFill=0;strokeColor=#1A1A1A;strokeWidth=2;" parent="1" source="13" edge="1">
                    <mxGeometry relative="1" as="geometry">
                        <mxPoint x="631" y="480" as="targetPoint"/>
                    </mxGeometry>
                </mxCell>
                <mxCell id="13" value="" style="shape=image;verticalLabelPosition=bottom;verticalAlign=top;imageAspect=0;aspect=fixed;image=data:image/svg+xml,PHN2ZyB4bWxucz0iaHR0cDovL3d3dy53My5vcmcvMjAwMC9zdmciIHhtbG5zOnhsaW5rPSJodHRwOi8vd3d3LnczLm9yZy8xOTk5L3hsaW5rIiB0PSIxNjQ1MzYxMDEyMzAyIiBjbGFzcz0iaWNvbiIgdmlld0JveD0iMCAwIDEwMjQgMTAyNCIgdmVyc2lvbj0iMS4xIiBwLWlkPSIxMTk0MiIgd2lkdGg9IjIwMCIgaGVpZ2h0PSIyMDAiPjxkZWZzPjxzdHlsZSB0eXBlPSJ0ZXh0L2NzcyIvPjwvZGVmcz48cGF0aCBkPSJNODg4IDEyOEgxNzAuNGMtMzkuNiAwLTcxLjkgMzIuMi03MiA3MS43LTAuMyAyLjctMC40IDUuNS0wLjQgOC4ydjYwNy42YzAgMi44IDAuMSA1LjUgMC40IDguMyAwLjIgMzkuNSAzMi40IDcxLjcgNzIgNzEuN2g0LjZjMSAwIDIgMC4xIDMgMC4xaDI5YzEgMCAyIDAgMy0wLjFoNjc4YzM5LjcgMCA3Mi0zMi4zIDcyLTcyVjIwMGMwLTM5LjctMzIuMy03Mi03Mi03MnogbS0yMjAgNzJ2NjIzLjZINTE1LjVWMjAwSDY2OHpNMTkyLjUgNDQ3LjFjLTE5LjkgMC0zNi0xNi4xLTM2LTM2czE2LjEtMzYgMzYtMzYgMzYgMTYuMSAzNiAzNi0xNi4xIDM2LTM2IDM2eiBtMC0xMTguM2MtMTkuOSAwLTM2LTE2LjEtMzYtMzZzMTYuMS0zNiAzNi0zNiAzNiAxNi4xIDM2IDM2LTE2LjEgMzYtMzYgMzZ6TTI4Ni42IDIwMGgxNTd2NjIzLjZoLTE1N2MwLjMtMi42IDAuNC01LjMgMC40LTcuOVYyMDhjMC0yLjctMC4yLTUuNC0wLjQtOHpNODg4IDgyMy42SDc0MFYyMDBoMTQ4djYyMy42eiIgcC1pZD0iMTE5NDMiLz48cGF0aCBkPSJNMzI5LjggMjU2LjNoNzJ2MTIwaC03MnpNNTU1LjggMjU2LjNoNzJ2MTIwaC03MnpNNzc3LjIgMjU2LjNoNzJ2MTIwaC03MnoiIHAtaWQ9IjExOTQ0Ii8+PC9zdmc+" parent="1" vertex="1">
                    <mxGeometry x="603" y="520" width="56" height="56" as="geometry"/>
                </mxCell>
                <mxCell id="53" style="edgeStyle=none;html=1;fontColor=#1A1A1A;endArrow=none;endFill=0;strokeColor=#1A1A1A;strokeWidth=2;" parent="1" edge="1">
                    <mxGeometry relative="1" as="geometry">
                        <mxPoint x="451" y="480" as="targetPoint"/>
                        <mxPoint x="450.9999999999999" y="520" as="sourcePoint"/>
                    </mxGeometry>
                </mxCell>
                <mxCell id="14" value="" style="shape=image;verticalLabelPosition=bottom;verticalAlign=top;imageAspect=0;aspect=fixed;image=data:image/svg+xml,PHN2ZyB4bWxucz0iaHR0cDovL3d3dy53My5vcmcvMjAwMC9zdmciIHhtbG5zOnhsaW5rPSJodHRwOi8vd3d3LnczLm9yZy8xOTk5L3hsaW5rIiB0PSIxNjQ1MzYxMTAxMjU5IiBjbGFzcz0iaWNvbiIgdmlld0JveD0iMCAwIDEwMjQgMTAyNCIgdmVyc2lvbj0iMS4xIiBwLWlkPSIxMzQ0OCIgd2lkdGg9IjIwMCIgaGVpZ2h0PSIyMDAiPjxkZWZzPjxzdHlsZSB0eXBlPSJ0ZXh0L2NzcyIvPjwvZGVmcz48cGF0aCBkPSJNNDE5Ljg0IDU0MC4xNnY0MDAuMzg0TDAgODgzLjJ2LTM0Mi41MjhoNDE5Ljg0eiBtMC00NTcuMjE2djQwNS41MDRIMFYxNDAuOGw0MTkuODQtNTcuODU2eiBtNjA0LjE2IDQ1Ny4yMTZWMTAyNEw0NjUuOTIgOTQ3LjJ2LTQwNi41MjhoNTU4LjA4ek0xMDI0IDB2NDg4LjQ0OEg0NjUuOTJWNzYuOEwxMDI0IDB6IiBwLWlkPSIxMzQ0OSIvPjwvc3ZnPg==" parent="1" vertex="1">
                    <mxGeometry x="421" y="520" width="56" height="56" as="geometry"/>
                </mxCell>
                <mxCell id="16" value="" style="shape=image;verticalLabelPosition=bottom;verticalAlign=top;imageAspect=0;aspect=fixed;image=data:image/svg+xml,PHN2ZyB4bWxucz0iaHR0cDovL3d3dy53My5vcmcvMjAwMC9zdmciIGhlaWdodD0iNTc1IiB2aWV3Qm94PSIwIDAgNDAwMDAgOTIwMCIgd2lkdGg9IjI1MDAiPjxwYXRoIGQ9Ik0zMzgxNyA4NDIzYzAgNjMgOCAxNTMgNTAgMjA0IDMwIDM1IDY0IDUzIDExMCA1M3M4MS0xNiAxMTAtNTFjNDItNTAgNDktMTQ4IDQ5LTIxMHMtNy0xNDgtNTAtMTk4Yy0yOS0zNC02MS01MS0xMDYtNTEtNDcgMC04MyAxNy0xMTMgNTMtNDIgNTAtNTAgMTM3LTUwIDIwMHptLTE1NjctN2MwLTU1LTctMTMwLTQ0LTE3NC0yNy0zMS01Ny00NS05OC00NS0zNCAwLTU3IDE0LTc4IDQwLTM1IDQzLTQwIDEzOC00MCAxOTAgMCA1MyA2IDEzNyA0MiAxODAgMjIgMjcgNDcgNDIgODIgNDIgMzkgMCA2OC0xNSA5My00NCAzNy00NCA0My0xMzUgNDMtMTg5em0tMTc3NC0yMDFjLTgtMjItMTktNDMtMzMtNTctMjktMjktNjYtMzctMTA2LTM3LTUyIDAtOTAgMTktMTIyIDYxLTcgMTAtMTMgMjEtMTkgMzRoMjgwem0tMTgyNCAwYy04LTIyLTE5LTQzLTMzLTU3LTI5LTI5LTY2LTM3LTEwNi0zNy01MiAwLTkwIDE5LTEyMiA2MS03IDEwLTEzIDIxLTE5IDM0aDI4MHptLTg5NTAgMGMtOC0yMi0xOS00My0zMy01Ny0yOS0yOS02Ni0zNy0xMDYtMzctNTIgMC05MCAxOS0xMjIgNjEtNyAxMC0xMyAyMS0xOSAzNGgyODB6bS0yNzk1IDBjLTgtMjItMTktNDMtMzMtNTctMjktMjktNjYtMzctMTA2LTM3LTUyIDAtOTAgMTktMTIyIDYxLTcgMTAtMTMgMjEtMTkgMzRoMjgwem0xODc2NS00NjljMjQtMTcgNTAtMzIgNzYtNDUgOTEtNDQgMTkyLTYwIDI5Mi02MCAxMDIgMCAyMTAgMTYgMjk4IDY5IDQ2IDI4IDg1IDYyIDExOCAxMDIgNTAtNDYgMTA2LTg4IDE2NS0xMTYgODgtNDEgMTg2LTU1IDI4Mi01NSAxNTEgMCAyOTIgNDMgMzk4IDE1NCAxMTQgMTIxIDE0NCAyOTYgMTQ0IDQ1NnY5MTloLTY5MHYtODQzYzAtMTktMi02MS0xNS03N2wtMi00Yy0xNC0xOS0yOS0zMi01My0zMi0zMSAwLTU1IDktNzUgMzMtMjkgMzQtMzMgMTA4LTMzIDE1MHY3NzNoLTY5MHYtODE2YzAtMjEgMC03MC02LTkwLTUtMTUtMTMtMjctMjUtMzYtMTEtOS0yNC0xMi0zOS0xMi0zMSAwLTU1IDEwLTc1IDM0LTMwIDM1LTM1IDExNC0zNSAxNTh2NzYzaC02OTBWNzY3M2g2NTV6bS0yNTQ1IDY3OGMwLTIxOCA3My00MTAgMjMyLTU2MyAxNjgtMTYxIDM4NS0yMjAgNjE1LTIyMCAyNTMgMCA0OTcgNjYgNjY5IDI2MCAxMjkgMTQ2IDE4NiAzMjIgMTg2IDUxNSAwIDIxOC03MSA0MTEtMjMwIDU2NC0xNjkgMTYzLTM5MyAyMjAtNjIzIDIyMC0yMDggMC00MTEtNDgtNTc0LTE4Mi0xODUtMTUzLTI3NS0zNTUtMjc1LTU5NHptLTg0MyA2NzdjLTE2IDEyLTMzIDIyLTQ5IDMxLTg5IDQ3LTE4NyA2OC0yODcgNjgtMjAzIDAtMzcyLTc3LTQ4OC0yNDQtMTE0LTE2My0xNTktMzUzLTE1OS01NDkgMC0yMDEgNDItNDA5IDE4MS01NjIgMTI0LTEzNyAyODMtMjA0IDQ2OC0yMDQgODYgMCAxNzAgMTQgMjUwIDQ2IDE2IDcgMzEgMTQgNDcgMjJ2LTUzN2g2OTV2MTk5OGgtNjU3di02OXptLTIwODYtNDY1YzYgMTIgMTIgMjMgMjAgMzIgMzQgMzggNzMgNTQgMTI0IDU0IDM1IDAgNjgtOCA5OC0yNSAyMi0xMiA0Ny00MCA2Mi02MGwxLTF6bTczOCAwbDI4OCAyNi03MSAxMjJjLTc2IDEzMS0xNzcgMjQ3LTMxMyAzMTktMTQ5IDc5LTM0MyA5Ny01MDkgOTctMTUwIDAtMzE5LTE3LTQ1NS04My0xMjItNjAtMjE3LTE1My0yODgtMjY4LTgwLTEyOS0xMTMtMjc1LTExMy00MjYgMC0yMTggNjgtNDEzIDIyNy01NjUgMTY3LTE2MCAzODYtMjE2IDYxMy0yMTYgMTYzIDAgMzQ1IDIwIDQ5MSA5NiAxMjYgNjYgMjIzIDE2MSAyOTAgMjg2IDc1IDE0MSA5NyAzMDggOTcgNDY2djE0N2gtMjU3em0tMjU2MiAwYzYgMTIgMTIgMjMgMjAgMzIgMzMgMzggNzMgNTQgMTI0IDU0IDM1IDAgNjgtOCA5OC0yNSAyMi0xMiA0Ny00MCA2Mi02MGwxLTF6bTczOCAwbDI4OCAyNi03MSAxMjJjLTc2IDEzMS0xNzcgMjQ3LTMxMyAzMTktMTQ5IDc5LTM0MyA5Ny01MDkgOTctMTUwIDAtMzE5LTE3LTQ1NS04My0xMjItNjAtMjE3LTE1My0yODgtMjY4LTgwLTEyOS0xMTItMjc1LTExMi00MjYgMC0yMTggNjgtNDEzIDIyNy01NjUgMTY3LTE2MCAzODYtMjE2IDYxMy0yMTYgMTYzIDAgMzQ1IDIwIDQ5MSA5NiAxMjYgNjYgMjIzIDE2MSAyOTAgMjg2IDc1IDE0MSA5NyAzMDggOTcgNDY2djE0N2gtMjU4em0tMjAyOC05MjdjNjgtNDkgMTQ4LTY4IDIzMi02OCAxMDEgMCAyMDAgMzQgMjg5IDgwbDc0IDM5LTIyNyA1MTYtODItMzRjLTI4LTEyLTc3LTMwLTEwOC0zMC0zNiAwLTYwIDEzLTgwIDQyLTU3IDg1LTYzIDI4NC02MyAzODJ2NTMzaC02OTJWNzY3MWg2NTd6bS0xNjE1IDMzdjEzOGg3MTF2NTQ4aC03MTB2NzQyaC03NTBWNzE3MWgxNTc5djU3MXptLTI0MTIgMzg4Yy00LTctOS0xNC0xNi0xOS0yNy0xOC02MS0yNC05NC0yNC0xNCAwLTUzIDItNjcgMTAgNDAgMTcgMTM2IDI5IDE3NyAzM3ptNjcgNTc5Yy0yLTItNi00LTgtNS0zNy0xOC0xNTAtMzYtMTkyLTQzLTE5LTMtMzgtNi01OC0xMCAxMCAyNiAyNiA1NSA0OCA3MCAyNyAxOCA2NyAyMyA5OSAyM3M3Ni00IDEwMi0yNGwzLTJjMS0yIDQtNSA2LTl6bS01MTktMTE2Yy0yMy03LTQ0LTE0LTY1LTIyLTg3LTMzLTE1OC04OS0yMTMtMTYyLTYwLTc5LTg4LTE2OS04OC0yNjcgMC0xMDQgMzAtMTk5IDk2LTI4MSA2NS04MSAxNTItMTM2IDI1MS0xNzAgMTIwLTQyIDI2MS01MiAzODgtNTIgMTE3IDAgMjY1IDQgMzc3IDQwIDg1IDI3IDE2MiA3MSAyMjUgMTM0IDY2IDY2IDExMiAxNTAgMTQ1IDIzNmw0MyAxMTAtMzU2IDM0YzE5IDYgMzcgMTMgNTUgMjAgOTIgMzggMTcyIDk1IDIyOSAxNzcgNTQgNzcgODIgMTY0IDgyIDI1OCAwIDk4LTMxIDE4OS04NCAyNzEtNjIgOTYtMTU1IDE2MS0yNTggMjA2LTEzNCA1Ny0yOTcgNzEtNDQyIDcxLTE3OCAwLTQxNS0xNy01NjgtMTE5LTEyNS04My0yMDItMjAyLTIzNS0zNDdsLTIzLTEwMHptLTEyMjktNDYzYy00LTctMTAtMTQtMTYtMTktMjctMTgtNjEtMjQtOTQtMjQtMTQgMC01MyAyLTY3IDEwIDQwIDE3IDEzNyAyOSAxNzcgMzN6bTY3IDU3OWMtMi0yLTYtNC04LTUtMzctMTgtMTUwLTM2LTE5Mi00My0xOS0zLTM4LTYtNTgtMTAgMTAgMjYgMjYgNTUgNDggNzAgMjcgMTggNjcgMjMgOTkgMjNzNzYtNCAxMDItMjRsMy0yYzItMiA1LTUgNi05em0tNTE5LTExNmMtMjMtNy00NC0xNC02NS0yMi04Ny0zMy0xNTgtODktMjEzLTE2Mi02MC03OS04OS0xNjktODktMjY3IDAtMTA0IDMwLTE5OSA5Ni0yODEgNjUtODEgMTUyLTEzNiAyNTAtMTcwIDEyMC00MiAyNjEtNTIgMzg4LTUyIDExNyAwIDI2NSA0IDM3NyA0MCA4NSAyNyAxNjIgNzEgMjI1IDEzNCA2NiA2NiAxMTIgMTUwIDE0NSAyMzZsNDIgMTEwLTM1NiAzNGMxOSA2IDM4IDEzIDU1IDIwIDkyIDM4IDE3MiA5NSAyMjkgMTc3IDU0IDc3IDgyIDE2NCA4MiAyNTggMCA5OC0zMSAxODktODMgMjcxLTYyIDk2LTE1NSAxNjEtMjU4IDIwNi0xMzQgNTctMjk4IDcxLTQ0MiA3MS0xNzggMC00MTYtMTctNTY4LTExOS0xMjUtODMtMjAyLTIwMi0yMzUtMzQ3bC0yMy0xMDB6bS0xNTAwIDQzYzYgMTIgMTIgMjMgMjAgMzIgMzMgMzggNzMgNTQgMTI0IDU0IDM1IDAgNjgtOCA5OS0yNSAyMi0xMiA0Ny00MCA2Mi02MGwxLTF6bTczOCAwbDI4OCAyNi03MSAxMjJjLTc2IDEzMS0xNzcgMjQ3LTMxMyAzMTktMTQ5IDc5LTM0MiA5Ny01MDkgOTctMTUwIDAtMzE4LTE3LTQ1NS04My0xMjItNjAtMjE3LTE1My0yODgtMjY4LTgwLTEyOS0xMTItMjc1LTExMi00MjYgMC0yMTggNjgtNDEzIDIyNy01NjUgMTY3LTE2MCAzODYtMjE2IDYxMy0yMTYgMTYzIDAgMzQ1IDIwIDQ5MSA5NiAxMjYgNjYgMjIzIDE2MSAyOTAgMjg2IDc1IDE0MSA5NiAzMDggOTYgNDY2djE0N2gtMjU3em0tMjM0OS0xNDY1aDY5MHYxOTk4aC02OTB6bS0xMTg0IDE0NjVjNiAxMiAxMiAyMyAyMCAzMiAzNCAzOCA3MyA1NCAxMjQgNTQgMzUgMCA2OC04IDk5LTI1IDIyLTEyIDQ3LTQwIDYyLTYwbDEtMXptNzM4IDBsMjg4IDI2LTcxIDEyMmMtNzYgMTMxLTE3NyAyNDctMzEzIDMxOS0xNDkgNzktMzQyIDk3LTUwOSA5Ny0xNTAgMC0zMTktMTctNDU1LTgzLTEyMi02MC0yMTctMTUzLTI4OC0yNjgtODAtMTI5LTExMy0yNzUtMTEzLTQyNiAwLTIxOCA2OC00MTMgMjI3LTU2NSAxNjctMTYwIDM4Ni0yMTYgNjEzLTIxNiAxNjMgMCAzNDUgMjAgNDkxIDk2IDEyNiA2NiAyMjMgMTYxIDI5MCAyODYgNzUgMTQxIDk2IDMwOCA5NiA0NjZ2MTQ3aC0yNTZ6bS0yMDI4LTkyN2M2OS00OSAxNDgtNjggMjMyLTY4IDEwMSAwIDIwMCAzNCAyODkgODBsNzUgMzktMjI3IDUxNi04Mi0zNGMtMjgtMTItNzctMzAtMTA4LTMwLTM2IDAtNjAgMTMtODAgNDItNTcgODUtNjMgMjg0LTYzIDM4MnY1MzNoLTY5MlY3NjcxaDY1N3YzOHptLTM3MTAgMTcwbDE5Ny03MDhoNjcwbDIwMCA3MTIgMTM2LTcxMWg3MjJsLTQ0MyAxOTk4aC02OTZsLTI1Mi04OTktMjUwIDg5OWgtNjk1bC00NDctMTk5OGg3MjV6bTI3ODQtMjA4djE0OThoLTY5MFY3MTcxaDY5MHoiIGZpbGw9IiNhNmE2YTYiLz48cGF0aCBkPSJNMzUxMDggNzc2MWg0NzR2MTkyYzY4LTgwIDEzNy0xMzggMjA3LTE3MSA2OS0zNCAxNTMtNTEgMjUyLTUxIDEwNiAwIDE4OSAxOSAyNTEgNTZzMTEyIDkzIDE1MSAxNjZjODAtODYgMTUyLTE0NSAyMTgtMTc2czE0Ny00NyAyNDMtNDdjMTQyIDAgMjUzIDQyIDMzMiAxMjYgODAgODQgMTIwIDIxNSAxMjAgMzk0djgyOGgtNTA4di03NTNjMC02MC0xMi0xMDUtMzUtMTMzLTM0LTQ2LTc2LTY4LTEyNi02OC02MCAwLTEwOCAyMi0xNDQgNjVzLTU1IDExMy01NSAyMDh2NjgyaC01MDl2LTcyNmMwLTU4LTMtOTctMTAtMTE4LTExLTMzLTI5LTYwLTU2LTgwLTI2LTIwLTU4LTMwLTk0LTMwLTU4IDAtMTA2IDIyLTE0NCA2NnMtNTYgMTE2LTU2IDIxNnY2NzNoLTUwOVY3NzYxem0tMTM4MiA2NjJjMCAxMTggMjQgMjA2IDcyIDI2MnMxMDcgODUgMTgwIDg1IDEzMy0yOCAxNzktODNjNDctNTYgNzAtMTQ1IDcwLTI2OCAwLTExNS0yMy0yMDAtNzEtMjU2LTQ3LTU2LTEwNi04NC0xNzYtODQtNzQgMC0xMzUgMjgtMTgzIDg1LTQ3IDU3LTcxIDE0My03MSAyNTl6bS01MDggMWMwLTIwMiA2OC0zNjcgMjA1LTQ5OCAxMzYtMTMwIDMyMC0xOTYgNTUyLTE5NiAyNjUgMCA0NjYgNzcgNjAxIDIzMCAxMDkgMTI0IDE2MyAyNzYgMTYzIDQ1NiAwIDIwMy02NyAzNjktMjAyIDQ5OS0xMzUgMTI5LTMyMiAxOTQtNTYxIDE5NC0yMTIgMC0zODUtNTQtNTE2LTE2Mi0xNjItMTMyLTI0Mi0zMDctMjQyLTUyM3ptLTg3OC05YzAtMTA0LTIyLTE4MS02Ni0yMzJzLTEwMC03Ny0xNjctNzdjLTU5IDAtMTA4IDI0LTE0OCA3NC00MCA0OS02MCAxMzEtNjAgMjQ2IDAgMTA4IDIxIDE4NyA2MiAyMzdzOTIgNzUgMTUzIDc1YzY1IDAgMTE5LTI1IDE2Mi03NiA0My00OSA2NC0xMzIgNjQtMjQ3em01MTAtMTE1NHYxODE4aC00NzZ2LTE5NWMtNjYgODMtMTI3IDEzOS0xODIgMTY5LTczIDM4LTE1NSA1Ny0yNDQgNTctMTgwIDAtMzE4LTY4LTQxNC0yMDUtOTUtMTM3LTE0My0zMDMtMTQzLTQ5OCAwLTIxOSA1My0zODYgMTU4LTUwMnMyMzktMTc0IDQwMS0xNzRjNzkgMCAxNTEgMTMgMjE1IDM5IDY1IDI3IDEyMiA2NiAxNzIgMTE5di02Mjh6bS0yMjYzIDEwNDRjLTEwLTk4LTM3LTE2OS04MC0yMTFzLTk5LTY0LTE2OS02NGMtODEgMC0xNDYgMzItMTk0IDk2LTMxIDQwLTUwIDk5LTU5IDE3OGg1MDJ6bTUxNiAyNDFoLTEwMjBjOSA4MSAzMSAxNDEgNjcgMTgxIDQ5IDU3IDExMyA4NSAxOTMgODUgNTAgMCA5OC0xMiAxNDMtMzcgMjgtMTYgNTctNDMgODktODJsNTAxIDQ2Yy03NyAxMzItMTY5IDIyNy0yNzcgMjg1LTEwOCA1Ny0yNjQgODYtNDY2IDg2LTE3NiAwLTMxNC0yNC00MTUtNzQtMTAwLTQ5LTE4NC0xMjctMjUwLTIzNS02Ni0xMDctOTktMjM0LTk5LTM3OCAwLTIwNiA2Ni0zNzMgMTk5LTUwMSAxMzMtMTI3IDMxNi0xOTEgNTUwLTE5MSAxOTAgMCAzNDAgMjkgNDQ5IDg2czE5NCAxNDAgMjUxIDI0OGM1NyAxMDkgODYgMjUwIDg2IDQyNHY1N3ptLTIzNDAtMjQxYy0xMC05OC0zNy0xNjktODAtMjExcy05OS02NC0xNjktNjRjLTgxIDAtMTQ2IDMyLTE5NCA5Ni0zMSA0MC01MCA5OS01OSAxNzhoNTAyem01MTYgMjQxaC0xMDIwYzkgODEgMzEgMTQxIDY2IDE4MSA0OSA1NyAxMTMgODUgMTkzIDg1IDUwIDAgOTgtMTIgMTQzLTM3IDI4LTE2IDU3LTQzIDg5LTgybDUwMSA0NmMtNzcgMTMyLTE2OSAyMjctMjc3IDI4NS0xMDggNTctMjY0IDg2LTQ2NiA4Ni0xNzYgMC0zMTQtMjQtNDE1LTc0LTEwMS00OS0xODQtMTI3LTI1MC0yMzUtNjYtMTA3LTk5LTIzNC05OS0zNzggMC0yMDYgNjctMzczIDE5OS01MDEgMTMzLTEyNyAzMTYtMTkxIDU1MC0xOTEgMTkwIDAgMzQwIDI5IDQ0OSA4NiAxMTAgNTcgMTk0IDE0MCAyNTEgMjQ4IDU3IDEwOSA4NiAyNTAgODYgNDI0em0tMjc2Mi03ODVoNDc2djIxNWM0Ni05NCA5My0xNTggMTQyLTE5M3MxMDktNTIgMTgxLTUyYzc1IDAgMTU4IDIzIDI0NyA3MGwtMTU4IDM1OWMtNjAtMjUtMTA4LTM3LTE0My0zNy02NyAwLTExOCAyNy0xNTUgODItNTIgNzctNzkgMjIxLTc5IDQzM3Y0NDNoLTUxMXptLTE3MDYtNTAwaDEzOTh2MzkxaC04MzF2MzE3aDcxMXYzNjhoLTcxMXY3NDJoLTU2N3ptLTI1MzkgMTQ1M2w1MDQtNDZjMjEgNTkgNTAgMTAyIDg3IDEyNyAzOCAyNSA4NyAzOCAxNTAgMzggNjggMCAxMjEtMTQgMTU5LTQ0IDI5LTIxIDQ0LTQ4IDQ0LTgwIDAtMzYtMTktNjUtNTctODUtMjctMTQtMTAwLTMxLTIxOC01Mi0xNzYtMzAtMjk5LTU5LTM2OC04NXMtMTI2LTcwLTE3My0xMzItNzAtMTMzLTcwLTIxMmMwLTg3IDI1LTE2MiA3Ni0yMjQgNTEtNjMgMTIxLTExMCAyMTAtMTQxczIwOC00NyAzNTgtNDdjMTU4IDAgMjc0IDEyIDM0OSAzNnMxMzggNjEgMTg4IDExMiA5MiAxMTkgMTI1IDIwNWwtNDgwIDQ2Yy0xMi00Mi0zMy03My02Mi05My00MC0yNi04OC0zOS0xNDQtMzktNTcgMC05OSAxMC0xMjUgMzFzLTM5IDQ1LTM5IDc0YzAgMzMgMTcgNTcgNDkgNzMgMzMgMTcgMTA1IDMyIDIxNiA0NSAxNjkgMTkgMjk0IDQ2IDM3NyA4MCA4MiAzNCAxNDUgODIgMTg5IDE0NXM2NiAxMzIgNjYgMjA3YzAgNzYtMjMgMTUwLTY5IDIyMnMtMTE5IDEyOS0yMTggMTcyLTIzNSA2NC00MDYgNjRjLTI0MiAwLTQxNC0zNC01MTctMTAzLTEwNi03MC0xNzItMTY4LTIwMS0yOTR6bS0xNjgxIDBsNTA0LTQ2YzIxIDU5IDUwIDEwMiA4NyAxMjcgMzggMjUgODcgMzggMTUwIDM4IDY4IDAgMTIxLTE0IDE1OC00NCAyOS0yMSA0NC00OCA0NC04MCAwLTM2LTE5LTY1LTU3LTg1LTI3LTE0LTEwMC0zMS0yMTgtNTItMTc2LTMwLTI5OC01OS0zNjgtODUtNjktMjYtMTI2LTcwLTE3My0xMzJzLTcwLTEzMy03MC0yMTJjMC04NyAyNS0xNjIgNzYtMjI0IDUxLTYzIDEyMS0xMTAgMjEwLTE0MXMyMDgtNDcgMzU4LTQ3YzE1OCAwIDI3NCAxMiAzNDkgMzZzMTM4IDYxIDE4OCAxMTIgOTIgMTE5IDEyNSAyMDVsLTQ4MSA0NmMtMTItNDItMzMtNzMtNjItOTMtNDAtMjYtODgtMzktMTQ0LTM5LTU3IDAtOTkgMTAtMTI1IDMxLTI2IDIwLTM5IDQ1LTM5IDc0IDAgMzMgMTcgNTcgNDkgNzMgMzMgMTcgMTA1IDMyIDIxNiA0NSAxNjkgMTkgMjk0IDQ2IDM3NyA4MCA4MiAzNCAxNDUgODIgMTg5IDE0NXM2NiAxMzIgNjYgMjA3YzAgNzYtMjMgMTUwLTY5IDIyMnMtMTE5IDEyOS0yMTggMTcyLTIzNSA2NC00MDYgNjRjLTI0MiAwLTQxNS0zNC01MTctMTAzLTEwNC03MC0xNzAtMTY4LTE5OS0yOTR6bS03NzktNDA5Yy0xMC05OC0zNy0xNjktODAtMjExcy05OS02NC0xNjktNjRjLTgxIDAtMTQ2IDMyLTE5NCA5Ni0zMSA0MC01MCA5OS01OSAxNzhoNTAyem01MTcgMjQxaC0xMDIwYzkgODEgMzEgMTQxIDY3IDE4MSA0OSA1NyAxMTMgODUgMTkzIDg1IDUwIDAgOTgtMTIgMTQzLTM3IDI4LTE2IDU3LTQzIDg5LTgybDUwMSA0NmMtNzcgMTMyLTE2OSAyMjctMjc3IDI4NS0xMDggNTctMjY0IDg2LTQ2NiA4Ni0xNzYgMC0zMTQtMjQtNDE1LTc0LTEwMC00OS0xODQtMTI3LTI1MC0yMzUtNjYtMTA3LTk5LTIzNC05OS0zNzggMC0yMDYgNjYtMzczIDE5OS01MDEgMTMzLTEyNyAzMTYtMTkxIDU1MC0xOTEgMTkwIDAgMzQwIDI5IDQ0OSA4NiAxMTAgNTcgMTk0IDE0MCAyNTIgMjQ4IDU3IDEwOSA4NiAyNTAgODYgNDI0djU3em0tMjQyNS0xMjg1aDUwOXYxODE4aC01MDl6bS04ODYgMTA0NGMtMTAtOTgtMzctMTY5LTgwLTIxMXMtOTktNjQtMTcwLTY0Yy04MSAwLTE0NiAzMi0xOTQgOTYtMzEgNDAtNTAgOTktNTkgMTc4aDUwM3ptNTE2IDI0MWgtMTAyMGM5IDgxIDMxIDE0MSA2NyAxODEgNDkgNTcgMTEzIDg1IDE5MyA4NSA1MCAwIDk4LTEyIDE0My0zNyAyOC0xNiA1Ny00MyA4OS04Mmw1MDEgNDZjLTc3IDEzMi0xNjkgMjI3LTI3NyAyODUtMTA4IDU3LTI2NCA4Ni00NjYgODYtMTc2IDAtMzE0LTI0LTQxNS03NC0xMDAtNDktMTg0LTEyNy0yNTAtMjM1LTY2LTEwNy05OS0yMzQtOTktMzc4IDAtMjA2IDY3LTM3MyAxOTktNTAxIDEzMy0xMjcgMzE2LTE5MSA1NTAtMTkxIDE5MCAwIDM0MCAyOSA0NDkgODYgMTEwIDU3IDE5NCAxNDAgMjUxIDI0OCA1NyAxMDkgODYgMjUwIDg2IDQyNHY1N3ptLTI3NjItNzg1aDQ3NnYyMTVjNDYtOTQgOTMtMTU4IDE0Mi0xOTNzMTA5LTUyIDE4MS01MmM3NSAwIDE1OCAyMyAyNDcgNzBsLTE1OCAzNTljLTYwLTI1LTEwOC0zNy0xNDMtMzctNjYgMC0xMTggMjctMTU1IDgyLTUyIDc3LTc5IDIyMS03OSA0MzN2NDQzaC01MTF6bS05NTggMGg1MDl2MTMxOGgtNTA5em0wLTUwMGg1MDl2MzQzaC01MDl6bS0yOTMxIDBoNTM3bDE5MyAxMDE1IDI4My0xMDE1aDUzM2wyODUgMTAxNiAxOTQtMTAxNmg1MzRsLTQwMyAxODE4aC01NTVsLTMyMS0xMTQ1LTMxOSAxMTQ1aC01NTR6Ii8+PHBhdGggZD0iTTE1NTUwIDM2NjZjLTYzLTQyLTEzNy01My0yMTYtNTMtODEgMC0xNDQgMTctMjAwIDUzem0tNTk3OCA4MTBjMCAxNDAgMTYgMzczIDExMyA0ODYgNjIgNzMgMTI3IDEwMiAyMjMgMTAyIDcwIDAgMTExLTI4IDE1NS04MiA4Ny0xMDYgMTAwLTQxNCAxMDAtNTQxIDAtMTM2LTE0LTM5Mi0xMDctNTA0LTQ4LTU4LTkyLTkyLTE2OC05Mi05MCAwLTE0NyAzMS0yMDQgOTktOTcgMTEzLTExMiAzOTMtMTEyIDUzMnptLTY4ODctODIwYzAgMjk0IDMxIDc3OCAyMzQgMTAxNSAxNTYgMTgyIDM1NyAyNDQgNTk0IDI0NCAyMzEgMCA0NDQtNTQgNTk3LTIzNCAyMDEtMjM3IDIyNi04MTUgMjI2LTExMDYgMC0yODctMzQtNzE1LTIzNS05NDMtMTYwLTE4Mi0zNjUtMjQzLTYwNS0yNDMtMjMzIDAtNDIyIDY4LTU3NiAyNDUtMjA0IDIzNy0yMzUgNzI3LTIzNSAxMDIyek0wIDM2NTFjMC05NTEgMjQ1LTE4NjcgOTM3LTI1NTMgNjkxLTY4NiAxNjA3LTkzMCAyNTY0LTkzMCA5NTUgMCAxODk1IDIyOSAyNTkxIDkxNCA2ODcgNjc2IDkzMCAxNTgxIDkzMCAyNTIyIDAgNjQ0LTk0IDEzMjAtNDAwIDE4OTctMjczIDUxNi02NzIgOTIwLTExODQgMTIwNS01NjcgMzE2LTEyMjEgNDIzLTE4NjQgNDIzLTYyNyAwLTEyODQtODUtMTg1NC0zNjEtNTM2LTI1OS05NDgtNjY2LTEyNTAtMTE3NEMxMjEgNTAwNiAwIDQzMjUgMCAzNjUxem0xNTE4MiAxNjQwYzUwIDIwIDEwNSAyOSAxNjggMjkgNjEgMCAxMTktOSAxNzQtMjl6bTI5ODAtMTUwNFYxODk2aDIzODh2MTc3YzI2LTE1IDUyLTMwIDc5LTQzIDMyNi0xNzAgNjkxLTIzMyAxMDU2LTIzMyA1MjYgMCAxMDEzIDE1MyAxMzgwIDUzNyAzOTQgNDEyIDUwMyA5OTYgNTAzIDE1NDV2MzE0OWgtMjUxMFY0MjQ3YzAtNjEtNy0yNDMtNDMtMjkzLTIzLTI2LTczLTI3LTEwNC0yNy02OSAwLTExMyAxOC0xNTYgNzEtNzkgOTctOTEgNDMyLTkxIDU0OHYyNDgyaC0yNTAyVjU2MDZsLTYwIDEwNGMtMjYwIDQ0Ny02MDcgODQxLTEwNzAgMTA4Ny01MDUgMjY4LTExNTMgMzMxLTE3MTcgMzMxLTUxMCAwLTEwNzUtNTgtMTUzOC0yODQtNDE5LTIwNS03NDYtNTI2LTk4OS05MjEtOTYtMTU2LTE3Mi0zMTgtMjMxLTQ4Ni05NCAzNjMtMjU2IDcwNC01MTggOTkwLTQyOSA0NjktOTc5IDcwMS0xNjE3IDcwMS0yODcgMC01NzAtNDYtODM3LTE1MnYxNjgySDcwNjdWMTg5NmgyMzk2djEyNGMzMDEtMTUyIDYyOS0yMjMgOTY3LTIyMyA2OTUgMCAxMjc3IDI3MCAxNjgzIDgzNSAyMDMgMjgyIDM0MiA1OTAgNDMwIDkxMyAxMjQtMzc0IDMzMi03MTQgNjM3LTEwMDcgNTY3LTU0NCAxMzEyLTc0MSAyMDg1LTc0MSA1NTQgMCAxMTYyIDY5IDE2NjAgMzI4IDQzMyAyMjUgNzY5IDU1NiA5OTcgOTg2IDExMSAyMTEgMTg4IDQ0MCAyNDAgNjc2em0xNzcxNy0xODA5di04Mmg2MDh2LTYyNEwzODk4OSAwdjE4OTZoOTA3djIwNDdoLTkwN3YxMDk5YzAgMTkgMCA0NSAxIDcyIDEwMS0xNSAyMTktNTIgMjk5LTc3bDQ5NC0xNTcgMjE3IDIwMjQtMzY5IDgxYy00MDUgODktODIxIDE0NC0xMjM3IDE0NC0zNjEgMC03OTAtMzQtMTExMi0yMDgtMjgzLTE1Mi00OTEtMzg3LTYxOS02ODAtMTUzLTM0OC0xNzUtODMxLTE3NS0xMjA3VjM5NDNoLTYwOHYtNDQ4bC0yOTIgNjYzLTM4NC0xNjBjLTcxLTMwLTIyMy04OS0zMDItODktNzUgMC0xMTMgMjAtMTU0IDgyLTE2NiAyNDYtMTg1IDg5MC0xODUgMTE3NXYxODYxaC0yNTEwVjIyNTRsLTEwNTkgNDc3NGgtMjQ2N2wtNzI0LTI1NzktNzE5IDI1ODBoLTI0NjRMMjMxMTAgMjY3aDI2MjVsMzU2IDE4NzIgNTIyLTE4NzJoMjM3N2w1MjkgMTg4NyAzNjEtMTg4N2gyNjE1bC0zNjEgMTYyOWgyMzE3djMwYzE5NS05MCA0MDgtMTI5IDYyNy0xMjkgMjc3IDAgNTQ4IDcxIDgwMSAxODF6Ii8+PHBhdGggZD0iTTM4NTY2IDY4N3YxNjI5aDkwN3YxMjA3aC05MDd2MTUxOWMwIDE4MiAxOCAzMDMgNTMgMzYzIDU0IDkxIDE1MCAxMzcgMjg2IDEzNyAxMjIgMCAyOTMtMzUgNTEzLTEwNWwxMjIgMTEzN2MtNDA5IDkwLTc5MSAxMzQtMTE0NiAxMzQtNDEyIDAtNzE2LTUyLTkxMS0xNTctMTk0LTEwNS0zMzgtMjY1LTQzMy00NzgtOTMtMjE0LTE0MC01NjEtMTQwLTEwMzlWMzUyM2gtNjA4VjIzMTZoNjA4di03ODd6bS02MDkwIDE2MjloMTU1MXY3MDBjMTUwLTMwNSAzMDQtNTE0IDQ2Mi02MjkgMTYwLTExNCAzNTUtMTcxIDU4OC0xNzEgMjQ2IDAgNTEzIDc2IDgwMyAyMjdsLTUxMyAxMTY3Yy0xOTUtODEtMzUxLTEyMS00NjUtMTIxLTIxNiAwLTM4NiA5MC01MDUgMjY3LTE3MSAyNTEtMjU3IDcyMS0yNTcgMTQwOXYxNDQyaC0xNjY1VjIzMTZ6TTIzNjM2IDY4N2gxNzQ4bDYyOCAzMzA0IDkyMS0zMzA0aDE3MzRsOTI4IDMzMTAgNjMzLTMzMTBoMTc0MGwtMTMxNCA1OTIyaC0xODA2bC0xMDQ2LTM3MjgtMTAzOSAzNzI4aC0xODAzem0tNTA1MiAxNjI5aDE1NDN2Njk5YzIzMC0yODcgNDYyLTQ5MSA2OTgtNjEzIDIzNi0xMjMgNTIyLTE4NSA4NjAtMTg1IDQ1OCAwIDgxNSAxMzUgMTA3NCA0MDcgMjU4IDI3MCAzODcgNjg5IDM4NyAxMjU2djI3MjloLTE2NjVWNDI0N2MwLTI3MC01MC00NjAtMTUwLTU3MnMtMjQwLTE2OC00MjAtMTY4Yy0xOTggMC0zNjEgNzYtNDg0IDIyNi0xMjMgMTUyLTE4NiA0MjItMTg2IDgxM3YyMDYyaC0xNjU2VjIzMTZ6bS0yNDM5IDE3NzBjLTMyLTMyMC0xMTktNTQ4LTI1OS02ODZzLTMyMy0yMDctNTUyLTIwN2MtMjY0IDAtNDc0IDEwNS02MzMgMzEzLTEwMCAxMzAtMTY0IDMyMy0xOTEgNTgwem0xNjgyIDc4NmgtMzMyMWMzMSAyNjMgMTAxIDQ2MCAyMTcgNTkwIDE1OSAxODYgMzY5IDI3OSA2MjcgMjc5IDE2NCAwIDMxOS00MCA0NjUtMTIwIDkwLTUxIDE4Ny0xNDEgMjkwLTI2OWwxNjMxIDE0OWMtMjUwIDQzMC01NTEgNzQwLTkwMyA5MjYtMzUyIDE4OC04NTkgMjgxLTE1MTcgMjgxLTU3MyAwLTEwMjItODAtMTM1MS0yNDEtMzI3LTE2MC01OTktNDE1LTgxNi03NjQtMjE1LTM1MC0zMjMtNzYxLTMyMy0xMjMyIDAtNjcxIDIxNi0xMjE2IDY0OS0xNjMwIDQzMS00MTUgMTAyOS02MjMgMTc5MS02MjMgNjE5IDAgMTEwNiA5NCAxNDY0IDI4MHM2MzEgNDU1IDgxOSA4MDljMTg3IDM1MyAyODAgODEzIDI4MCAxMzgwdjE4NXptLTg2NzctMzk2YzAgMzQyIDcyIDU5NCAyMTUgNzU5czMyNSAyNDggNTQ0IDI0OGMxOTIgMCAzNTItNzggNDgzLTIzNyAxMjktMTU4IDE5NC00MjcgMTk0LTgwNiAwLTM1MC02OC02MDYtMjAyLTc3MS0xMzYtMTY0LTMwMC0yNDUtNDk1LTI0NS0yMTEgMC0zODYgODMtNTI3IDI0OC0xNDIgMTY2LTIxMiA0MzMtMjEyIDgwNHpNNzQ4OSA4MjM3VjIzMTZoMTU1MXY2MzNjMjE0LTI2NyA0MTEtNDQ4IDU5MC01NDIgMjQwLTEyNyA1MDgtMTkwIDgwMC0xOTAgNTc3IDAgMTAyMiAyMTkgMTMzOSA2NTkgMzE1IDQ0MCA0NzMgOTg0IDQ3MyAxNjMxIDAgNzE1LTE3MiAxMjYxLTUxNiAxNjM3LTM0NCAzNzctNzc4IDU2NC0xMzA0IDU2NC0yNTUgMC00ODctNDMtNjk2LTEyOC0yMTEtODctMzk4LTIxNC01NjMtMzgzdjIwNDFINzQ4OXpNMjI2MiAzNjU2YzAgNTk3IDExMiAxMDI3IDMzNiAxMjg3IDIyNSAyNjAgNTMwIDM5MiA5MTYgMzkyIDM5NSAwIDcwMy0xMjggOTIwLTM4MyAyMTgtMjU2IDMyNi03MTQgMzI2LTEzNzcgMC01NTctMTE0LTk2My0zNDAtMTIyMC0yMjctMjU4LTUzNC0zODYtOTIyLTM4Ni0zNzIgMC02NzEgMTMxLTg5NiAzOTItMjI3IDI2MC0zNDAgNjkyLTM0MCAxMjk1em0tMTgzOS00YzAtOTY2IDI3MS0xNzE5IDgxMy0yMjU2IDU0Mi01MzkgMTI5Ny04MDggMjI2NS04MDggOTkyIDAgMTc1NiAyNjUgMjI5MyA3OTMgNTM3IDUyOSA4MDUgMTI3MSA4MDUgMjIyMyAwIDY5Mi0xMTYgMTI1OS0zNTEgMTcwMS0yMzQgNDQyLTU3NCA3ODctMTAxNyAxMDM0LTQ0NCAyNDctOTk2IDM2OS0xNjU4IDM2OS02NzEgMC0xMjI4LTEwNi0xNjY5LTMxOC00NDAtMjE0LTc5OC01NTAtMTA3MS0xMDEwUzQyMyA0MzQ0IDQyMyAzNjUyeiIgZmlsbD0iI2ZmZiIvPjwvc3ZnPg==" parent="1" vertex="1">
                    <mxGeometry x="455.33" y="300" width="173.34" height="40" as="geometry"/>
                </mxCell>
                <mxCell id="22" value="光猫" style="text;html=1;strokeColor=none;fillColor=none;align=center;verticalAlign=middle;whiteSpace=wrap;rounded=0;sketch=0;fontColor=#1A1A1A;fontFamily=Helvetica;" parent="1" vertex="1">
                    <mxGeometry x="240" y="443" width="60" height="30" as="geometry"/>
                </mxCell>
                <mxCell id="23" value="互联网" style="text;html=1;strokeColor=none;fillColor=none;align=center;verticalAlign=middle;whiteSpace=wrap;rounded=0;sketch=0;fontColor=#1A1A1A;fontFamily=Helvetica;" parent="1" vertex="1">
                    <mxGeometry x="130" y="443" width="60" height="30" as="geometry"/>
                </mxCell>
                <mxCell id="28" value="" style="shape=image;verticalLabelPosition=bottom;verticalAlign=top;imageAspect=0;aspect=fixed;image=data:image/svg+xml,PHN2ZyB4bWxucz0iaHR0cDovL3d3dy53My5vcmcvMjAwMC9zdmciIHhtbG5zOnhsaW5rPSJodHRwOi8vd3d3LnczLm9yZy8xOTk5L3hsaW5rIiB0PSIxNjQ1MzYyMDg1ODExIiBjbGFzcz0iaWNvbiIgdmlld0JveD0iMCAwIDEwMjQgMTAyNCIgdmVyc2lvbj0iMS4xIiBwLWlkPSIxNjMyNyIgd2lkdGg9IjIwMCIgaGVpZ2h0PSIyMDAiPjxkZWZzPjxzdHlsZSB0eXBlPSJ0ZXh0L2NzcyIvPjwvZGVmcz48cGF0aCBkPSJNNzA0IDQ5MC42NjY2NjdIMzIwYy0xMi44IDAtMjEuMzMzMzMzIDguNTMzMzMzLTIxLjMzMzMzMyAyMS4zMzMzMzN2MTcwLjY2NjY2N2MwIDEyLjggOC41MzMzMzMgMjEuMzMzMzMzIDIxLjMzMzMzMyAyMS4zMzMzMzNoMzJ2LTc0LjY2NjY2N2MwLTE3LjA2NjY2NyAxNC45MzMzMzMtMzIgMzItMzJzMzIgMTQuOTMzMzMzIDMyIDMyVjcwNGg2NHYtNzQuNjY2NjY3YzAtMTcuMDY2NjY3IDE0LjkzMzMzMy0zMiAzMi0zMnMzMiAxNC45MzMzMzMgMzIgMzJWNzA0aDY0di03NC42NjY2NjdjMC0xNy4wNjY2NjcgMTQuOTMzMzMzLTMyIDMyLTMyczMyIDE0LjkzMzMzMyAzMiAzMlY3MDRINzA0YzEyLjggMCAyMS4zMzMzMzMtOC41MzMzMzMgMjEuMzMzMzMzLTIxLjMzMzMzM3YtMTcwLjY2NjY2N2MwLTEyLjgtOC41MzMzMzMtMjEuMzMzMzMzLTIxLjMzMzMzMy0yMS4zMzMzMzN6IiBwLWlkPSIxNjMyOCIvPjxwYXRoIGQ9Ik04MzIgMjU2aC0xMDIuNGwtNTcuNi0xMjEuNmMtNi40LTE3LjA2NjY2Ny0yMS4zMzMzMzMtMjcuNzMzMzMzLTQwLjUzMzMzMy0yNy43MzMzMzNIMzkyLjUzMzMzM2MtMTcuMDY2NjY3IDAtMzQuMTMzMzMzIDEwLjY2NjY2Ny00MC41MzMzMzMgMjcuNzMzMzMzTDI5NC40IDI1NkgxOTJjLTQ2LjkzMzMzMyAwLTg1LjMzMzMzMyAzOC40LTg1LjMzMzMzMyA4NS4zMzMzMzN2NDkwLjY2NjY2N2MwIDQ2LjkzMzMzMyAzOC40IDg1LjMzMzMzMyA4NS4zMzMzMzMgODUuMzMzMzMzaDY0MGM0Ni45MzMzMzMgMCA4NS4zMzMzMzMtMzguNCA4NS4zMzMzMzMtODUuMzMzMzMzVjM0MS4zMzMzMzNjMC00Ni45MzMzMzMtMzguNC04NS4zMzMzMzMtODUuMzMzMzMzLTg1LjMzMzMzM3ogbS00Mi42NjY2NjcgNDY5LjMzMzMzM2MwIDIzLjQ2NjY2Ny0xOS4yIDQyLjY2NjY2Ny00Mi42NjY2NjYgNDIuNjY2NjY3SDI3Ny4zMzMzMzNjLTIzLjQ2NjY2NyAwLTQyLjY2NjY2Ny0xOS4yLTQyLjY2NjY2Ni00Mi42NjY2NjdWNDY5LjMzMzMzM2MwLTIzLjQ2NjY2NyAxOS4yLTQyLjY2NjY2NyA0Mi42NjY2NjYtNDIuNjY2NjY2aDQ2OS4zMzMzMzRjMjMuNDY2NjY3IDAgNDIuNjY2NjY3IDE5LjIgNDIuNjY2NjY2IDQyLjY2NjY2NnYyNTZ6IiBwLWlkPSIxNjMyOSIvPjwvc3ZnPg==" parent="1" vertex="1">
                    <mxGeometry x="652" y="385" width="56" height="56" as="geometry"/>
                </mxCell>
                <mxCell id="51" style="edgeStyle=none;shape=link;html=1;entryX=1;entryY=0.5;entryDx=0;entryDy=0;fontColor=#1A1A1A;strokeColor=#1A1A1A;strokeWidth=2;" parent="1" source="33" target="28" edge="1">
                    <mxGeometry relative="1" as="geometry"/>
                </mxCell>
                <mxCell id="33" value="" style="shape=image;verticalLabelPosition=bottom;verticalAlign=top;imageAspect=0;aspect=fixed;image=data:image/svg+xml,PHN2ZyB4bWxucz0iaHR0cDovL3d3dy53My5vcmcvMjAwMC9zdmciIHhtbG5zOnhsaW5rPSJodHRwOi8vd3d3LnczLm9yZy8xOTk5L3hsaW5rIiB0PSIxNjQ1MzYyMjc4MzEyIiBjbGFzcz0iaWNvbiIgdmlld0JveD0iMCAwIDEwMjQgMTAyNCIgdmVyc2lvbj0iMS4xIiBwLWlkPSIxODIwNiIgd2lkdGg9IjIwMCIgaGVpZ2h0PSIyMDAiPjxkZWZzPjxzdHlsZSB0eXBlPSJ0ZXh0L2NzcyIvPjwvZGVmcz48cGF0aCBkPSJNMTAwOCA1MTJINDgwYy0xNy43IDAtMzItMTQuMy0zMi0zMlYxOTJjMC0xNy43LTE0LjMtMzItMzItMzItOC44IDAtMTYuOCAzLjYtMjIuNiA5LjQtNS44IDUuOC05LjQgMTMuOC05LjQgMjIuNnYyODhjMCAxNy43LTE0LjMgMzItMzIgMzItOC44IDAtMTYuOC0zLjYtMjIuNi05LjQtNS44LTUuOC05LjQtMTMuOC05LjQtMjIuNlYxOTJjMC0xNy43LTE0LjMtMzItMzItMzItOC44IDAtMTYuOCAzLjYtMjIuNiA5LjQtNS44IDUuOC05LjQgMTMuOC05LjQgMjIuNnYyODhjMCAxNy43LTE0LjMgMzItMzIgMzItOC44IDAtMTYuOC0zLjYtMjIuNi05LjQtNS44LTUuOC05LjQtMTMuOC05LjQtMjIuNlYxOTJjMC0xNy43LTE0LjMtMzItMzItMzItOC44IDAtMTYuOCAzLjYtMjIuNiA5LjQtNS44IDUuOC05LjQgMTMuOC05LjQgMjIuNnYyODhjMCAxNy43LTE0LjMgMzItMzIgMzJIMTZjLTguOCAwLTE2IDcuMi0xNiAxNnYyNTZjMCA4LjggNy4yIDE2IDE2IDE2aDk5MmM4LjggMCAxNi03LjIgMTYtMTZWNTI4YzAtOC44LTcuMi0xNi0xNi0xNnpNMTI4IDY4OHYtNjRoMzUydjY0SDEyOHogbTQzMi0zMmMwLTE3LjcgMTQuMy0zMiAzMi0zMnMzMiAxNC4zIDMyIDMyLTE0LjMgMzItMzIgMzItMzItMTQuMy0zMi0zMnogbTExMiAwYzAtMjYuNSAyMS41LTQ4IDQ4LTQ4czQ4IDIxLjUgNDggNDgtMjEuNSA0OC00OCA0OC00OC0yMS41LTQ4LTQ4eiBtMTc2IDQ4Yy0yNi41IDAtNDgtMjEuNS00OC00OHMyMS41LTQ4IDQ4LTQ4IDQ4IDIxLjUgNDggNDgtMjEuNSA0OC00OCA0OHoiIHAtaWQ9IjE4MjA3Ii8+PC9zdmc+" parent="1" vertex="1">
                    <mxGeometry x="882" y="385" width="56" height="56" as="geometry"/>
                </mxCell>
                <mxCell id="35" value="网关" style="text;html=1;strokeColor=none;fillColor=none;align=center;verticalAlign=middle;whiteSpace=wrap;rounded=0;sketch=0;fontColor=#1A1A1A;fontFamily=Helvetica;" parent="1" vertex="1">
                    <mxGeometry x="477" y="340" width="60" height="30" as="geometry"/>
                </mxCell>
                <mxCell id="36" value="" style="shape=image;verticalLabelPosition=bottom;verticalAlign=top;imageAspect=0;aspect=fixed;image=data:image/svg+xml,PHN2ZyB4bWxucz0iaHR0cDovL3d3dy53My5vcmcvMjAwMC9zdmciIHhtbG5zOnhsaW5rPSJodHRwOi8vd3d3LnczLm9yZy8xOTk5L3hsaW5rIiB0PSIxNjQ1MzYyMDg1ODExIiBjbGFzcz0iaWNvbiIgdmlld0JveD0iMCAwIDEwMjQgMTAyNCIgdmVyc2lvbj0iMS4xIiBwLWlkPSIxNjMyNyIgd2lkdGg9IjIwMCIgaGVpZ2h0PSIyMDAiPjxkZWZzPjxzdHlsZSB0eXBlPSJ0ZXh0L2NzcyIvPjwvZGVmcz48cGF0aCBkPSJNNzA0IDQ5MC42NjY2NjdIMzIwYy0xMi44IDAtMjEuMzMzMzMzIDguNTMzMzMzLTIxLjMzMzMzMyAyMS4zMzMzMzN2MTcwLjY2NjY2N2MwIDEyLjggOC41MzMzMzMgMjEuMzMzMzMzIDIxLjMzMzMzMyAyMS4zMzMzMzNoMzJ2LTc0LjY2NjY2N2MwLTE3LjA2NjY2NyAxNC45MzMzMzMtMzIgMzItMzJzMzIgMTQuOTMzMzMzIDMyIDMyVjcwNGg2NHYtNzQuNjY2NjY3YzAtMTcuMDY2NjY3IDE0LjkzMzMzMy0zMiAzMi0zMnMzMiAxNC45MzMzMzMgMzIgMzJWNzA0aDY0di03NC42NjY2NjdjMC0xNy4wNjY2NjcgMTQuOTMzMzMzLTMyIDMyLTMyczMyIDE0LjkzMzMzMyAzMiAzMlY3MDRINzA0YzEyLjggMCAyMS4zMzMzMzMtOC41MzMzMzMgMjEuMzMzMzMzLTIxLjMzMzMzM3YtMTcwLjY2NjY2N2MwLTEyLjgtOC41MzMzMzMtMjEuMzMzMzMzLTIxLjMzMzMzMy0yMS4zMzMzMzN6IiBwLWlkPSIxNjMyOCIvPjxwYXRoIGQ9Ik04MzIgMjU2aC0xMDIuNGwtNTcuNi0xMjEuNmMtNi40LTE3LjA2NjY2Ny0yMS4zMzMzMzMtMjcuNzMzMzMzLTQwLjUzMzMzMy0yNy43MzMzMzNIMzkyLjUzMzMzM2MtMTcuMDY2NjY3IDAtMzQuMTMzMzMzIDEwLjY2NjY2Ny00MC41MzMzMzMgMjcuNzMzMzMzTDI5NC40IDI1NkgxOTJjLTQ2LjkzMzMzMyAwLTg1LjMzMzMzMyAzOC40LTg1LjMzMzMzMyA4NS4zMzMzMzN2NDkwLjY2NjY2N2MwIDQ2LjkzMzMzMyAzOC40IDg1LjMzMzMzMyA4NS4zMzMzMzMgODUuMzMzMzMzaDY0MGM0Ni45MzMzMzMgMCA4NS4zMzMzMzMtMzguNCA4NS4zMzMzMzMtODUuMzMzMzMzVjM0MS4zMzMzMzNjMC00Ni45MzMzMzMtMzguNC04NS4zMzMzMzMtODUuMzMzMzMzLTg1LjMzMzMzM3ogbS00Mi42NjY2NjcgNDY5LjMzMzMzM2MwIDIzLjQ2NjY2Ny0xOS4yIDQyLjY2NjY2Ny00Mi42NjY2NjYgNDIuNjY2NjY3SDI3Ny4zMzMzMzNjLTIzLjQ2NjY2NyAwLTQyLjY2NjY2Ny0xOS4yLTQyLjY2NjY2Ni00Mi42NjY2NjdWNDY5LjMzMzMzM2MwLTIzLjQ2NjY2NyAxOS4yLTQyLjY2NjY2NyA0Mi42NjY2NjYtNDIuNjY2NjY2aDQ2OS4zMzMzMzRjMjMuNDY2NjY3IDAgNDIuNjY2NjY3IDE5LjIgNDIuNjY2NjY2IDQyLjY2NjY2NnYyNTZ6IiBwLWlkPSIxNjMyOSIvPjwvc3ZnPg==" parent="1" vertex="1">
                    <mxGeometry x="382" y="386" width="56" height="56" as="geometry"/>
                </mxCell>
                <mxCell id="37" value="物理WAN" style="text;html=1;strokeColor=none;fillColor=none;align=center;verticalAlign=middle;whiteSpace=wrap;rounded=0;sketch=0;fontColor=#1A1A1A;fontFamily=Helvetica;" parent="1" vertex="1">
                    <mxGeometry x="378" y="442" width="60" height="30" as="geometry"/>
                </mxCell>
                <mxCell id="40" value="物理LAN" style="text;html=1;strokeColor=none;fillColor=none;align=center;verticalAlign=middle;whiteSpace=wrap;rounded=0;sketch=0;fontColor=#1A1A1A;fontFamily=Helvetica;" parent="1" vertex="1">
                    <mxGeometry x="650" y="441" width="60" height="30" as="geometry"/>
                </mxCell>
                <mxCell id="52" value="" style="endArrow=none;html=1;fontColor=#1A1A1A;strokeColor=#1A1A1A;strokeWidth=2;" parent="1" edge="1">
                    <mxGeometry width="50" height="50" relative="1" as="geometry">
                        <mxPoint x="450" y="480" as="sourcePoint"/>
                        <mxPoint x="632" y="480" as="targetPoint"/>
                        <Array as="points">
                            <mxPoint x="542" y="480"/>
                        </Array>
                    </mxGeometry>
                </mxCell>
                <mxCell id="58" style="edgeStyle=none;html=1;fontColor=#1A1A1A;endArrow=none;endFill=0;strokeColor=#1A1A1A;strokeWidth=2;" parent="1" source="57" edge="1">
                    <mxGeometry relative="1" as="geometry">
                        <mxPoint x="542" y="480" as="targetPoint"/>
                    </mxGeometry>
                </mxCell>
                <mxCell id="57" value="" style="shape=image;verticalLabelPosition=bottom;verticalAlign=top;imageAspect=0;aspect=fixed;image=data:image/svg+xml,PHN2ZyB4bWxucz0iaHR0cDovL3d3dy53My5vcmcvMjAwMC9zdmciIHhtbG5zOnhsaW5rPSJodHRwOi8vd3d3LnczLm9yZy8xOTk5L3hsaW5rIiB0PSIxNjQ1MzYzNDg2MTYzIiBjbGFzcz0iaWNvbiIgdmlld0JveD0iMCAwIDEwMjQgMTAyNCIgdmVyc2lvbj0iMS4xIiBwLWlkPSIxODc2NSIgd2lkdGg9IjIwMCIgaGVpZ2h0PSIyMDAiPjxkZWZzPjxzdHlsZSB0eXBlPSJ0ZXh0L2NzcyIvPjwvZGVmcz48cGF0aCBkPSJNNDUyIDIzNC44NTcxNDNxLTYuMjg1NzE0IDAuNTcxNDI5LTguODU3MTQzIDZ0LTQuODU3MTQzIDUuNDI4NTcxcS0yLjg1NzE0MyAwLjU3MTQyOS0yLjg1NzE0My0yLjg1NzE0MyAwLTYuODU3MTQzIDEwLjg1NzE0My04LjU3MTQyOWw1LjcxNDI4NiAwem00OS43MTQyODYgOHEtMi4yODU3MTQgMC41NzE0MjktNi41NzE0MjktMy43MTQyODZ0LTEwLTIuNTcxNDI5cTEzLjcxNDI4Ni02LjI4NTcxNCAxOC4yODU3MTQgMS4xNDI4NTcgMS43MTQyODYgMy40Mjg1NzEtMS43MTQyODYgNS4xNDI4NTd6bS0yMDAuNTcxNDI5IDI0NHEtMi4yODU3MTQtMC41NzE0MjktMy40Mjg1NzEgMS43MTQyODZ0LTIuNTcxNDI5IDcuMTQyODU3LTMuMTQyODU3IDcuNzE0Mjg2LTUuNzE0Mjg2IDcuNDI4NTcxcS00IDUuNzE0Mjg2LTAuNTcxNDI5IDYuODU3MTQzIDIuMjg1NzE0IDAuNTcxNDI5IDcuMTQyODU3LTR0Ny4xNDI4NTctMTAuMjg1NzE0cTAuNTcxNDI5LTEuNzE0Mjg2IDEuMTQyODU3LTR0MS4xNDI4NTctMy40Mjg1NzEgMC44NTcxNDMtMi41NzE0MjkgMi44NTcxNDMtMi4yODU3MTRsMC0xLjcxNDI4Ni0wLjU3MTQyOS0xLjQyODU3MS0xLjcxNDI4Ni0xLjE0Mjg1N3ptNDg4LjU3MTQyOSAyMDUuMTQyODU3cTAtMTAuMjg1NzE0LTMxLjQyODU3MS0yNCAyLjI4NTcxNC04LjU3MTQyOSA0LjI4NTcxNC0xNS43MTQyODZ0Mi44NTcxNDMtMTQuODU3MTQzIDEuNzE0Mjg2LTEyLjI4NTcxNCAyLjg1NzE0My0xMi44NTcxNDMtMC41NzE0MjktMTEuMTQyODU3LTItMTIuNTcxNDI5LTIuMjg1NzE0LTExLjcxNDI4Ni0yLjg1NzE0My0xNC4yODU3MTQtMy4xNDI4NTctMTUuMTQyODU3cS01LjcxNDI4Ni0yNy40Mjg1NzEtMjYuODU3MTQzLTU4Ljg1NzE0M3QtNDEuMTQyODU3LTQyLjg1NzE0M3ExMy43MTQyODYgMTEuNDI4NTcxIDMyLjU3MTQyOSA0Ny40Mjg1NzEgNDkuNzE0Mjg2IDkyLjU3MTQyOSAzMC44NTcxNDMgMTU4Ljg1NzE0My02LjI4NTcxNCAyMi44NTcxNDMtMjguNTcxNDI5IDI0LTE3LjcxNDI4NiAyLjI4NTcxNC0yMi0xMC41NzE0Mjl0LTQuNTcxNDI5LTQ3LjcxNDI4Ni02LjU3MTQyOS02MS4xNDI4NTdxLTUuMTQyODU3LTIyLjI4NTcxNC0xMS4xNDI4NTctMzkuNDI4NTcxdC0xMS4xNDI4NTctMjYtOC44NTcxNDMtMTQtNy40Mjg1NzEtOC41NzE0MjktNC4yODU3MTQtNHEtOC0zNS40Mjg1NzEtMTcuNzE0Mjg2LTU4Ljg1NzE0M3QtMTYuODU3MTQzLTMyLTEzLjQyODU3MS0xOC44NTcxNDMtOC41NzE0MjktMjIuODU3MTQzcS0yLjI4NTcxNC0xMiAzLjQyODU3MS0zMC41NzE0Mjl0Mi41NzE0MjktMjguMjg1NzE0LTI1LjQyODU3MS0xNC4yODU3MTRxLTguNTcxNDI5LTEuNzE0Mjg2LTI1LjQyODU3MS0xMC4yODU3MTR0LTIwLjI4NTcxNC05LjE0Mjg1N3EtNC41NzE0MjktMC41NzE0MjktNi4yODU3MTQtMTQuODU3MTQzdDQuNTcxNDI5LTI5LjE0Mjg1NyAyMC41NzE0MjktMTUuNDI4NTcxcTIxLjE0Mjg1Ny0xLjcxNDI4NiAyOS4xNDI4NTcgMTcuMTQyODU3dDIuMjg1NzE0IDMzLjE0Mjg1N3EtNi4yODU3MTQgMTAuODU3MTQzLTEuMTQyODU3IDE1LjE0Mjg1N3QxNy4xNDI4NTcgMi44NTcxNDNxNy40Mjg1NzEtMi4yODU3MTQgNy40Mjg1NzEtMjAuNTcxNDI5bDAtMjEuMTQyODU3cS0yLjg1NzE0My0xNy4xNDI4NTctNy43MTQyODYtMjguNTcxNDI5dC0xMi0xNy40Mjg1NzEtMTMuNDI4NTcxLTguNTcxNDI5LTE1LjQyODU3MS00LjI4NTcxNHEtNjEuMTQyODU3IDQuNTcxNDI5LTUwLjg1NzE0MyA3Ni41NzE0MjkgMCA4LjU3MTQyOS0wLjU3MTQyOSA4LjU3MTQyOS01LjE0Mjg1Ny01LjE0Mjg1Ny0xNi44NTcxNDMtNnQtMTguODU3MTQzIDIuODU3MTQzLTguODU3MTQzLTIuODU3MTQzcTAuNTcxNDI5LTMyLjU3MTQyOS05LjE0Mjg1Ny01MS40Mjg1NzF0LTI1LjcxNDI4Ni0xOS40Mjg1NzFxLTE1LjQyODU3MS0wLjU3MTQyOS0yMy43MTQyODYgMTUuNzE0Mjg2dC05LjQyODU3MSAzNHEtMC41NzE0MjkgOC41NzE0MjkgMiAyMS4xNDI4NTd0Ny40Mjg1NzEgMjEuNDI4NTcxIDguODU3MTQzIDcuNzE0Mjg2cTUuNzE0Mjg2LTEuNzE0Mjg2IDkuMTQyODU3LTggMi4yODU3MTQtNS4xNDI4NTctNC00LjU3MTQyOS00IDAtOC44NTcxNDMtOC4yODU3MTR0LTUuNDI4NTcxLTE5LjE0Mjg1N3EtMC41NzE0MjktMTIuNTcxNDI5IDUuMTQyODU3LTIxLjE0Mjg1N3QxOS40Mjg1NzEtOHE5LjcxNDI4NiAwIDE1LjQyODU3MSAxMnQ1LjQyODU3MSAyMi4yODU3MTQtMC44NTcxNDMgMTIuNTcxNDI5cS0xMi41NzE0MjkgOC41NzE0MjktMTcuNzE0Mjg2IDE2LjU3MTQyOS00LjU3MTQyOSA2Ljg1NzE0My0xNS43MTQyODYgMTMuNDI4NTcxdC0xMS43MTQyODYgNy4xNDI4NTdxLTcuNDI4NTcxIDgtOC44NTcxNDMgMTUuNDI4NTcxdDQuMjg1NzE0IDEwLjI4NTcxNHE4IDQuNTcxNDI5IDE0LjI4NTcxNCAxMS4xNDI4NTd0OS4xNDI4NTcgMTAuODU3MTQzIDEwLjU3MTQyOSA3LjQyODU3MSAyMC4yODU3MTQgMy43MTQyODZxMjYuODU3MTQzIDEuMTQyODU3IDU4LjI4NTcxNC04LjU3MTQyOSAxLjE0Mjg1Ny0wLjU3MTQyOSAxMy4xNDI4NTctNHQxOS43MTQyODYtNiAxNi44NTcxNDMtNy40Mjg1NzEgMTItMTBxNS4xNDI4NTctOCAxMS40Mjg1NzEtNC41NzE0MjkgMi44NTcxNDMgMS43MTQyODYgMy43MTQyODYgNC44NTcxNDN0LTEuNzE0Mjg2IDYuODU3MTQzLTkuNDI4NTcxIDUuNDI4NTcxcS0xMS40Mjg1NzEgMy40Mjg1NzEtMzIuMjg1NzE0IDEyLjI4NTcxNHQtMjYgMTEuMTQyODU3cS0yNS4xNDI4NTcgMTAuODU3MTQzLTQwIDEzLjE0Mjg1Ny0xNC4yODU3MTQgMi44NTcxNDMtNDUuMTQyODU3LTEuMTQyODU3LTUuNzE0Mjg2LTEuMTQyODU3LTUuMTQyODU3IDEuMTQyODU3dDkuNzE0Mjg2IDEwLjg1NzE0M3ExNC4yODU3MTQgMTMuMTQyODU3IDM4LjI4NTcxNCAxMi41NzE0MjkgOS43MTQyODYtMC41NzE0MjkgMjAuNTcxNDI5LTR0MjAuNTcxNDI5LTggMTkuMTQyODU3LTEwIDE3LjE0Mjg1Ny05LjcxNDI4NiAxNC02Ljg1NzE0MyAxMC0xLjQyODU3MSA0Ljg1NzE0MyA2LjI4NTcxNHEwIDEuMTQyODU3LTAuNTcxNDI5IDIuNTcxNDI5dC0yLjI4NTcxNCAyLjg1NzE0My0zLjQyODU3MSAyLjU3MTQyOS00Ljg1NzE0MyAyLjg1NzE0My01LjE0Mjg1NyAyLjU3MTQyOS01LjcxNDI4NiAyLjg1NzE0My01LjQyODU3MSAyLjU3MTQyOXEtMTYgOC0zOC41NzE0MjkgMjUuMTQyODU3dC0zOCAyNC41NzE0MjktMjggMC41NzE0MjlxLTEyLTYuMjg1NzE0LTM2LTQxLjcxNDI4Ni0xMi41NzE0MjktMTcuNzE0Mjg2LTE0LjI4NTcxNC0xMi41NzE0MjktMC41NzE0MjkgMS43MTQyODYtMC41NzE0MjkgNS43MTQyODYgMCAxNC4yODU3MTQtOC41NzE0MjkgMzIuMjg1NzE0dC0xNi44NTcxNDMgMzEuNzE0Mjg2LTEyIDMzLjE0Mjg1NyA2LjU3MTQyOSAzNnEtMTMuMTQyODU3IDMuNDI4NTcxLTM1LjcxNDI4NiA1MS40Mjg1NzF0LTI3LjE0Mjg1NyA4MC41NzE0MjlxLTEuMTQyODU3IDEwLjI4NTcxNC0wLjg1NzE0MyAzOS40Mjg1NzF0LTMuMTQyODU3IDMzLjcxNDI4NnEtNC41NzE0MjkgMTMuNzE0Mjg2LTE2LjU3MTQyOSAxLjcxNDI4Ni0xOC4yODU3MTQtMTcuNzE0Mjg2LTIwLjU3MTQyOS01My43MTQyODYtMS4xNDI4NTctMTYgMi4yODU3MTQtMzIgMi4yODU3MTQtMTAuODU3MTQzLTAuNTcxNDI5LTEwLjI4NTcxNGwtMi4yODU3MTQgMi44NTcxNDNxLTIwLjU3MTQyOSAzNy4xNDI4NTcgNS43MTQyODYgOTQuODU3MTQzIDIuODU3MTQzIDYuODU3MTQzIDE0LjI4NTcxNCAxNnQxMy43MTQyODYgMTEuNDI4NTcxcTExLjQyODU3MSAxMy4xNDI4NTcgNTkuNDI4NTcxIDUxLjcxNDI4NnQ1My4xNDI4NTcgNDMuNzE0Mjg2cTkuMTQyODU3IDguNTcxNDI5IDEwIDIxLjcxNDI4NnQtOCAyNC41NzE0MjktMjYgMTMuMTQyODU3cTQuNTcxNDI5IDguNTcxNDI5IDE2LjU3MTQyOSAyNS40Mjg1NzF0MTYgMzAuODU3MTQzIDQgNDAuMjg1NzE0cTI2LjI4NTcxNC0xMy43MTQyODYgNC01Mi41NzE0MjktMi4yODU3MTQtNC41NzE0MjktNi05LjE0Mjg1N3QtNS40Mjg1NzEtNi44NTcxNDMtMS4xNDI4NTctMy40Mjg1NzFxMS43MTQyODYtMi44NTcxNDMgNy40Mjg1NzEtNS40Mjg1NzF0MTEuNDI4NTcxIDEuNDI4NTcxcTI2LjI4NTcxNCAyOS43MTQyODYgOTQuODU3MTQzIDIwLjU3MTQyOSA3Ni04LjU3MTQyOSAxMDEuMTQyODU3LTQ5LjcxNDI4NiAxMy4xNDI4NTctMjEuNzE0Mjg2IDE5LjQyODU3MS0xNy4xNDI4NTcgNi44NTcxNDMgMy40Mjg1NzEgNS43MTQyODYgMjkuNzE0Mjg2LTAuNTcxNDI5IDE0LjI4NTcxNC0xMy4xNDI4NTcgNTIuNTcxNDI5LTUuMTQyODU3IDEzLjE0Mjg1Ny0zLjQyODU3MSAyMS40Mjg1NzF0MTMuNzE0Mjg2IDguODU3MTQzcTEuNzE0Mjg2LTEwLjg1NzE0MyA4LjI4NTcxNC00NHQ3LjcxNDI4Ni01MS40Mjg1NzFxMS4xNDI4NTctMTItMy43MTQyODYtNDJ0LTQuMjg1NzE0LTU1LjQyODU3MSAxMy4xNDI4NTctNDAuMjg1NzE0cTguNTcxNDI5LTEwLjI4NTcxNCAyOS4xNDI4NTctMTAuMjg1NzE0IDAuNTcxNDI5LTIxLjE0Mjg1NyAxOS43MTQyODYtMzAuMjg1NzE0dDQxLjQyODU3MS02IDM0LjI4NTcxNCAxMi44NTcxNDN6bS0zNTguODU3MTQzLTQ3Mi41NzE0MjlxMS43MTQyODYtOS43MTQyODYtMS40Mjg1NzEtMTcuMTQyODU3dC02LjU3MTQyOS04LjU3MTQyOXEtNS4xNDI4NTctMS4xNDI4NTctNS4xNDI4NTcgNCAxLjE0Mjg1NyAyLjg1NzE0MyAyLjg1NzE0MyAzLjQyODU3MSA1LjcxNDI4NiAwIDQgOC41NzE0MjktMS43MTQyODYgMTEuNDI4NTcxIDQuNTcxNDI5IDExLjQyODU3MSAxLjcxNDI4NiAwIDEuNzE0Mjg2LTEuNzE0Mjg2em0yMzkuNDI4NTcxIDExMi41NzE0MjlxLTEuMTQyODU3LTQuNTcxNDI5LTMuNzE0Mjg2LTYuNTcxNDI5dC03LjQyODU3MS0yLjg1NzE0My04LjI4NTcxNC0zLjE0Mjg1N3EtMi44NTcxNDMtMS43MTQyODYtNS40Mjg1NzEtNC41NzE0Mjl0LTQtNC41NzE0MjktMy4xNDI4NTctMy43MTQyODYtMi4yODU3MTQtMi4yODU3MTQtMi4yODU3MTQgMC44NTcxNDNxLTggOS4xNDI4NTcgNCAyNC44NTcxNDN0MjIuMjg1NzE0IDE4cTUuMTQyODU3IDAuNTcxNDI5IDguMjg1NzE0LTQuNTcxNDI5dDItMTEuNDI4NTcxem0tMTAxLjcxNDI4Ni0xMjEuNzE0Mjg2cTAtNi4yODU3MTQtMi44NTcxNDMtMTEuMTQyODU3dC02LjI4NTcxNC03LjE0Mjg1Ny01LjE0Mjg1Ny0xLjcxNDI4NnEtOCAwLjU3MTQyOS00IDRsMi4yODU3MTQgMS4xNDI4NTdxOCAyLjI4NTcxNCAxMC4yODU3MTQgMTcuNzE0Mjg2IDAgMS43MTQyODYgNC41NzE0MjktMS4xNDI4NTd6bTMwLjg1NzE0My0xMzMuMTQyODU3cTAtMS4xNDI4NTctMS40Mjg1NzEtMi44NTcxNDN0LTUuMTQyODU3LTQtNS40Mjg1NzEtMy40Mjg1NzFxLTguNTcxNDI5LTguNTcxNDI5LTEzLjcxNDI4Ni04LjU3MTQyOS01LjE0Mjg1NyAwLjU3MTQyOS02LjU3MTQyOSA0LjI4NTcxNHQtMC41NzE0MjkgNy40Mjg1NzEgMi44NTcxNDMgNy4xNDI4NTdxLTAuNTcxNDI5IDIuMjg1NzE0LTMuNDI4NTcxIDZ0LTMuNDI4NTcxIDUuMTQyODU3IDEuNzE0Mjg2IDQuODU3MTQzcTIuMjg1NzE0IDEuNzE0Mjg2IDQuNTcxNDI5IDB0Ni4yODU3MTQtNS4xNDI4NTcgOC41NzE0MjktNS4xNDI4NTdxMC41NzE0MjktMC41NzE0MjkgNS4xNDI4NTctMC41NzE0Mjl0OC41NzE0MjktMS4xNDI4NTcgNS4xNDI4NTctNHptMzIyLjg1NzE0MyA3NjYuMjg1NzE0cTExLjQyODU3MSA2Ljg1NzE0MyAxNy43MTQyODYgMTR0Ni44NTcxNDMgMTMuNzE0Mjg2LTEuNDI4NTcxIDEyLjg1NzE0My04Ljg1NzE0MyAxMi41NzE0MjktMTMuNDI4NTcxIDExLjE0Mjg1Ny0xNy4xNDI4NTcgMTAuNTcxNDI5LTE4IDkuNDI4NTcxLTE4LjI4NTcxNCA4Ljg1NzE0My0xNS40Mjg1NzEgNy40Mjg1NzFxLTIxLjcxNDI4NiAxMC44NTcxNDMtNDguODU3MTQzIDMydC00My4xNDI4NTcgMzYuNTcxNDI5cS05LjcxNDI4NiA5LjE0Mjg1Ny0zOC44NTcxNDMgMTEuMTQyODU3dC01MC44NTcxNDMtOC4yODU3MTRxLTEwLjI4NTcxNC01LjE0Mjg1Ny0xNi44NTcxNDMtMTMuNDI4NTcxdC05LjQyODU3MS0xNC41NzE0MjktMTIuNTcxNDI5LTExLjE0Mjg1Ny0yNi44NTcxNDMtNS40Mjg1NzFxLTI1LjE0Mjg1Ny0wLjU3MTQyOS03NC4yODU3MTQtMC41NzE0MjktMTAuODU3MTQzIDAtMzIuNTcxNDI5IDAuODU3MTQzdC0zMy4xNDI4NTcgMS40Mjg1NzFxLTI1LjE0Mjg1NyAwLjU3MTQyOS00NS40Mjg1NzEgOC41NzE0Mjl0LTMwLjU3MTQyOSAxNy4xNDI4NTctMjQuODU3MTQzIDE2LjI4NTcxNC0zMC41NzE0MjkgNi41NzE0MjlxLTE2LjU3MTQyOS0wLjU3MTQyOS02My40Mjg1NzEtMTcuNzE0Mjg2dC04My40Mjg1NzEtMjQuNTcxNDI5cS0xMC44NTcxNDMtMi4yODU3MTQtMjkuMTQyODU3LTUuNDI4NTcxdC0yOC41NzE0MjktNS4xNDI4NTctMjIuNTcxNDI5LTUuNDI4NTcxLTE5LjE0Mjg1Ny04LjI4NTcxNC05LjcxNDI4Ni0xMS4xNDI4NTdxLTUuNzE0Mjg2LTEzLjE0Mjg1NyA0LTM4dDEwLjI4NTcxNC0zMS4xNDI4NTdxMC41NzE0MjktOS4xNDI4NTctMi4yODU3MTQtMjIuODU3MTQzdC01LjcxNDI4Ni0yNC4yODU3MTQtMi41NzE0MjktMjAuODU3MTQzIDYtMTUuNDI4NTcxcTgtNi44NTcxNDMgMzIuNTcxNDI5LTh0MzQuMjg1NzE0LTYuODU3MTQzcTE3LjE0Mjg1Ny0xMC4yODU3MTQgMjQtMjB0Ni44NTcxNDMtMjkuMTQyODU3cTEyIDQxLjcxNDI4Ni0xOC4yODU3MTQgNjAuNTcxNDI5LTE4LjI4NTcxNCAxMS40Mjg1NzEtNDcuNDI4NTcxIDguNTcxNDI5LTE5LjQyODU3MS0xLjcxNDI4Ni0yNC41NzE0MjkgNS43MTQyODYtNy40Mjg1NzEgOC41NzE0MjkgMi44NTcxNDMgMzIuNTcxNDI5IDEuMTQyODU3IDMuNDI4NTcxIDQuNTcxNDI5IDEwLjI4NTcxNHQ0Ljg1NzE0MyAxMC4yODU3MTQgMi41NzE0MjkgOS43MTQyODYgMC41NzE0MjkgMTIuNTcxNDI5cTAgOC41NzE0MjktOS43MTQyODYgMjh0LTggMjcuNDI4NTcxcTEuNzE0Mjg2IDkuNzE0Mjg2IDIxLjE0Mjg1NyAxNC44NTcxNDMgMTEuNDI4NTcxIDMuNDI4NTcxIDQ4LjI4NTcxNCAxMC41NzE0Mjl0NTYuODU3MTQzIDExLjcxNDI4NnExMy43MTQyODYgMy40Mjg1NzEgNDIuMjg1NzE0IDEyLjU3MTQyOXQ0Ny4xNDI4NTcgMTMuMTQyODU3IDMxLjcxNDI4NiAyLjI4NTcxNHEyNC41NzE0MjktMy40Mjg1NzEgMzYuODU3MTQzLTE2dDEzLjE0Mjg1Ny0yNy40Mjg1NzEtNC4yODU3MTQtMzMuNDI4NTcxLTEwLjg1NzE0My0yOS43MTQyODYtMTEuNDI4NTcxLTIwLjg1NzE0M3EtNjkuMTQyODU3LTEwOC41NzE0MjktOTYuNTcxNDI5LTEzOC4yODU3MTQtMzguODU3MTQzLTQyLjI4NTcxNC02NC41NzE0MjktMjIuODU3MTQzLTYuMjg1NzE0IDUuMTQyODU3LTguNTcxNDI5LTguNTcxNDI5LTEuNzE0Mjg2LTkuMTQyODU3LTEuMTQyODU3LTIxLjcxNDI4NiAwLjU3MTQyOS0xNi41NzE0MjkgNS43MTQyODYtMjkuNzE0Mjg2dDEzLjcxNDI4Ni0yNi44NTcxNDMgMTIuNTcxNDI5LTI0cTQuNTcxNDI5LTEyIDE1LjE0Mjg1Ny00MS4xNDI4NTd0MTYuODU3MTQzLTQ0LjU3MTQyOSAxNy4xNDI4NTctMzQuODU3MTQzIDIyLjI4NTcxNC0zMC44NTcxNDNxNjIuODU3MTQzLTgxLjcxNDI4NiA3MC44NTcxNDMtMTExLjQyODU3MS02Ljg1NzE0My02NC05LjE0Mjg1Ny0xNzcuMTQyODU3LTEuMTQyODU3LTUxLjQyODU3MSAxMy43MTQyODYtODYuNTcxNDI5dDYwLjU3MTQyOS01OS43MTQyODZxMjIuMjg1NzE0LTEyIDU5LjQyODU3MS0xMiAzMC4yODU3MTQtMC41NzE0MjkgNjAuNTcxNDI5IDcuNzE0Mjg2dDUwLjg1NzE0MyAyMy43MTQyODZxMzIuNTcxNDI5IDI0IDUyLjI4NTcxNCA2OS40Mjg1NzF0MTYuODU3MTQzIDg0LjI4NTcxNHEtMi44NTcxNDMgNTQuMjg1NzE0IDE3LjE0Mjg1NyAxMjIuMjg1NzE0IDE5LjQyODU3MSA2NC41NzE0MjkgNzYgMTI0LjU3MTQyOSAzMS40Mjg1NzEgMzMuNzE0Mjg2IDU2Ljg1NzE0MyA5My4xNDI4NTd0MzQgMTA5LjE0Mjg1N3E0LjU3MTQyOSAyOCAyLjg1NzE0MyA0OC4yODU3MTR0LTYuODU3MTQzIDMxLjcxNDI4Ni0xMS40Mjg1NzEgMTIuNTcxNDI5cS01LjcxNDI4NiAxLjE0Mjg1Ny0xMy40Mjg1NzEgMTAuODU3MTQzdC0xNS40Mjg1NzEgMjAuMjg1NzE0LTIzLjE0Mjg1NyAxOS4xNDI4NTctMzQuODU3MTQzIDhxLTEwLjI4NTcxNC0wLjU3MTQyOS0xOC0yLjg1NzE0M3QtMTIuODU3MTQzLTcuNzE0Mjg2LTcuNzE0Mjg2LTguODU3MTQzLTYuNTcxNDI5LTExLjcxNDI4Ni01LjE0Mjg1Ny0xMS4xNDI4NTdxLTEyLjU3MTQyOS0yMS4xNDI4NTctMjMuNDI4NTcxLTE3LjE0Mjg1N3QtMTYgMjggNCA1NS40Mjg1NzFxMTEuNDI4NTcxIDQwIDAuNTcxNDI5IDExMS40Mjg1NzEtNS43MTQyODYgMzcuMTQyODU3IDEwLjI4NTcxNCA1Ny40Mjg1NzF0NDEuNzE0Mjg2IDE4Ljg1NzE0MyA0OC41NzE0MjktMjAuMjg1NzE0cTMzLjcxNDI4Ni0yOCA1MS4xNDI4NTctMzh0NTkuMTQyODU3LTI0LjI4NTcxNHEzMC4yODU3MTQtMTAuMjg1NzE0IDQ0LTIwLjg1NzE0M3QxMC41NzE0MjktMTkuNzE0Mjg2LTE0LjI4NTcxNC0xNi4yODU3MTQtMjkuNDI4NTcxLTEzLjQyODU3MXEtMTguODU3MTQzLTYuMjg1NzE0LTI4LjI4NTcxNC0yNy40Mjg1NzF0LTguNTcxNDI5LTQxLjQyODU3MSA4Ljg1NzE0My0yNy4xNDI4NTdxMC41NzE0MjkgMTcuNzE0Mjg2IDQuNTcxNDI5IDMyLjI4NTcxNHQ4LjI4NTcxNCAyMy4xNDI4NTcgMTEuNzE0Mjg2IDE2LjI4NTcxNCAxMiAxMC44NTcxNDMgMTIuMjg1NzE0IDcuNDI4NTcxIDkuNDI4NTcxIDUuNDI4NTcxeiIgcC1pZD0iMTg3NjYiLz48L3N2Zz4=" parent="1" vertex="1">
                    <mxGeometry x="514" y="520" width="56" height="56" as="geometry"/>
                </mxCell>
                <mxCell id="59" value="下载机" style="text;html=1;strokeColor=none;fillColor=none;align=center;verticalAlign=middle;whiteSpace=wrap;rounded=0;sketch=0;fontColor=#1A1A1A;fontFamily=Helvetica;" parent="1" vertex="1">
                    <mxGeometry x="419" y="580" width="60" height="30" as="geometry"/>
                </mxCell>
                <mxCell id="60" value="NAS" style="text;html=1;strokeColor=none;fillColor=none;align=center;verticalAlign=middle;whiteSpace=wrap;rounded=0;sketch=0;fontColor=#1A1A1A;fontFamily=Helvetica;" parent="1" vertex="1">
                    <mxGeometry x="601" y="580" width="60" height="30" as="geometry"/>
                </mxCell>
                <mxCell id="61" value="server" style="text;html=1;strokeColor=none;fillColor=none;align=center;verticalAlign=middle;whiteSpace=wrap;rounded=0;sketch=0;fontColor=#1A1A1A;fontFamily=Helvetica;" parent="1" vertex="1">
                    <mxGeometry x="512" y="580" width="60" height="30" as="geometry"/>
                </mxCell>
                <mxCell id="62" value="爱快路由" style="text;html=1;strokeColor=none;fillColor=none;align=center;verticalAlign=middle;whiteSpace=wrap;rounded=0;sketch=0;fontColor=#1A1A1A;fontFamily=Helvetica;" parent="1" vertex="1">
                    <mxGeometry x="455.33" y="441" width="60" height="30" as="geometry"/>
                </mxCell>
                <mxCell id="63" value="AP路由" style="text;html=1;strokeColor=none;fillColor=none;align=center;verticalAlign=middle;whiteSpace=wrap;rounded=0;sketch=0;fontColor=#1A1A1A;fontFamily=Helvetica;" parent="1" vertex="1">
                    <mxGeometry x="952" y="398" width="60" height="30" as="geometry"/>
                </mxCell>
                <mxCell id="64" style="edgeStyle=none;html=1;fontColor=#1A1A1A;strokeColor=#1A1A1A;strokeWidth=2;endArrow=none;endFill=0;" parent="1" edge="1">
                    <mxGeometry relative="1" as="geometry">
                        <mxPoint x="909.5699999999999" y="429.35" as="sourcePoint"/>
                        <mxPoint x="910" y="480" as="targetPoint"/>
                    </mxGeometry>
                </mxCell>
                <mxCell id="65" value="" style="endArrow=none;html=1;fontColor=#1A1A1A;strokeColor=#1A1A1A;strokeWidth=2;" parent="1" edge="1">
                    <mxGeometry width="50" height="50" relative="1" as="geometry">
                        <mxPoint x="820" y="480" as="sourcePoint"/>
                        <mxPoint x="1080" y="480" as="targetPoint"/>
                    </mxGeometry>
                </mxCell>
                <mxCell id="72" style="edgeStyle=none;html=1;entryX=0;entryY=0.5;entryDx=0;entryDy=0;fontColor=#1A1A1A;endArrow=none;endFill=0;strokeColor=#1A1A1A;strokeWidth=2;rounded=0;" parent="1" source="66" target="68" edge="1">
                    <mxGeometry relative="1" as="geometry">
                        <Array as="points">
                            <mxPoint x="821" y="658"/>
                        </Array>
                    </mxGeometry>
                </mxCell>
                <mxCell id="66" value="" style="shape=image;verticalLabelPosition=bottom;verticalAlign=top;imageAspect=0;aspect=fixed;image=data:image/svg+xml,PHN2ZyB4bWxucz0iaHR0cDovL3d3dy53My5vcmcvMjAwMC9zdmciIHhtbG5zOnhsaW5rPSJodHRwOi8vd3d3LnczLm9yZy8xOTk5L3hsaW5rIiB0PSIxNjQ1MzcxNTg3ODI4IiBjbGFzcz0iaWNvbiIgdmlld0JveD0iMCAwIDEwMjQgMTAyNCIgdmVyc2lvbj0iMS4xIiBwLWlkPSIyMDcyMiIgd2lkdGg9IjIwMCIgaGVpZ2h0PSIyMDAiPjxkZWZzPjxzdHlsZSB0eXBlPSJ0ZXh0L2NzcyIvPjwvZGVmcz48cGF0aCBkPSJNOTM4LjUxNzMzMyA2ODIuNjY2NjY3djI1Nkg4NS4zMzMzMzNWNjgyLjY2NjY2N2g4NTMuMTg0bTg1LjMzMzMzNC04NS4zMzMzMzRIMHY0MjYuNjY2NjY3aDEwMjMuODI5MzMzeiIgcC1pZD0iMjA3MjMiLz48cGF0aCBkPSJNODYzLjMxNzMzMyA4NS4zMzMzMzNsNjQgNTEySDk2LjYxODY2N2w2NC01MTJoNzAyLjcybTc1LjM0OTMzMy04NS4zMzMzMzNIODUuNDYxMzMzbC04NS4zMzMzMzMgNjgyLjY2NjY2N2gxMDIzLjgyOTMzM3oiIHAtaWQ9IjIwNzI0Ii8+PHBhdGggZD0iTTE3MC42MjQgNzY3LjkxNDY2N2gzODR2ODUuMzMzMzMzaC0zODR6IiBwLWlkPSIyMDcyNSIvPjxwYXRoIGQ9Ik02MzkuODcyIDc2Ny45MTQ2NjdtNDIuNjY2NjY3IDBsMCAwcTQyLjY2NjY2NyAwIDQyLjY2NjY2NiA0Mi42NjY2NjZsMCAwcTAgNDIuNjY2NjY3LTQyLjY2NjY2NiA0Mi42NjY2NjdsMCAwcS00Mi42NjY2NjcgMC00Mi42NjY2NjctNDIuNjY2NjY3bDAgMHEwLTQyLjY2NjY2NyA0Mi42NjY2NjctNDIuNjY2NjY2WiIgcC1pZD0iMjA3MjYiLz48cGF0aCBkPSJNNzY3Ljg3MiA3NjcuOTE0NjY3bTQyLjY2NjY2NyAwbDAgMHE0Mi42NjY2NjcgMCA0Mi42NjY2NjYgNDIuNjY2NjY2bDAgMHEwIDQyLjY2NjY2Ny00Mi42NjY2NjYgNDIuNjY2NjY3bDAgMHEtNDIuNjY2NjY3IDAtNDIuNjY2NjY3LTQyLjY2NjY2N2wwIDBxMC00Mi42NjY2NjcgNDIuNjY2NjY3LTQyLjY2NjY2NloiIHAtaWQ9IjIwNzI3Ii8+PC9zdmc+" parent="1" vertex="1">
                    <mxGeometry x="793" y="524" width="56" height="56" as="geometry"/>
                </mxCell>
                <mxCell id="67" value="" style="endArrow=none;html=1;fontColor=#1A1A1A;strokeColor=#1A1A1A;strokeWidth=2;" parent="1" edge="1">
                    <mxGeometry width="50" height="50" relative="1" as="geometry">
                        <mxPoint x="820.85" y="524" as="sourcePoint"/>
                        <mxPoint x="821" y="480" as="targetPoint"/>
                    </mxGeometry>
                </mxCell>
                <mxCell id="68" value="" style="shape=image;verticalLabelPosition=bottom;verticalAlign=top;imageAspect=0;aspect=fixed;image=data:image/svg+xml,PHN2ZyB4bWxucz0iaHR0cDovL3d3dy53My5vcmcvMjAwMC9zdmciIHhtbG5zOnhsaW5rPSJodHRwOi8vd3d3LnczLm9yZy8xOTk5L3hsaW5rIiB0PSIxNjQ1MzcxNjUxMzk4IiBjbGFzcz0iaWNvbiIgdmlld0JveD0iMCAwIDEwMjQgMTAyNCIgdmVyc2lvbj0iMS4xIiBwLWlkPSIyMTc4MyIgd2lkdGg9IjIwMCIgaGVpZ2h0PSIyMDAiPjxkZWZzPjxzdHlsZSB0eXBlPSJ0ZXh0L2NzcyIvPjwvZGVmcz48cGF0aCBkPSJNNDY0IDQ5NkgyNzJjLTE3LjYgMC0zMi0xNC40LTMyLTMyczE0LjQtMzIgMzItMzJoMTkyYzE3LjYgMCAzMiAxNC40IDMyIDMycy0xNC40IDMyLTMyIDMyeiBtLTk2IDIyNGMtMTcuNiAwLTMyLTE0LjQtMzItMzJWNDY0YzAtMTcuNiAxNC40LTMyIDMyLTMyczMyIDE0LjQgMzIgMzJ2MjI0YzAgMTcuNi0xNC40IDMyLTMyIDMyeiBtMjg4IDBjLTEyLjggMC0yNC04LTI4LjgtMTkuMmwtOTYtMjI0Yy02LjQtMTYgMC0zNS4yIDE2LTQxLjYgMTYtNi40IDM1LjIgMCA0MS42IDE3LjZMNjU2IDYwOGw2Ny4yLTE1NS4yYzYuNC0xNiAyNS42LTI0IDQxLjYtMTcuNiAxNiA2LjQgMjQgMjUuNiAxNiA0MS42bC05NiAyMjRDNjgwIDcxMiA2NjguOCA3MjAgNjU2IDcyMHogbTE5MiAyMDhIMTc2Yy01Mi44IDAtOTYtNDMuMi05Ni05NlYzMjBjMC01Mi44IDQzLjItOTYgOTYtOTZoNjcyYzUyLjggMCA5NiA0My4yIDk2IDk2djUxMmMwIDUyLjgtNDMuMiA5Ni05NiA5NnpNMTc2IDI4OGMtMTcuNiAwLTMyIDE0LjQtMzIgMzJ2NTEyYzAgMTcuNiAxNC40IDMyIDMyIDMyaDY3MmMxNy42IDAgMzItMTQuNCAzMi0zMlYzMjBjMC0xNy42LTE0LjQtMzItMzItMzJIMTc2eiBtMjcyIDBjLTggMC0xNi0zLjItMjIuNC05LjZsLTE2MC0xNjBjLTEyLjgtMTIuOC0xMi44LTMyIDAtNDQuOCAxMi44LTEyLjggMzItMTIuOCA0NC44IDBsMTYwIDE2MGMxMi44IDEyLjggMTIuOCAzMiAwIDQ0LjgtNi40IDYuNC0xNC40IDkuNi0yMi40IDkuNnogbTEyOCAwYy04IDAtMTYtMy4yLTIyLjQtOS42LTEyLjgtMTIuOC0xMi44LTMyIDAtNDQuOGwxNjAtMTYwYzEyLjgtMTIuOCAzMi0xMi44IDQ0LjggMCAxMi44IDEyLjggMTIuOCAzMiAwIDQ0LjhsLTE2MCAxNjBDNTkyIDI4NC44IDU4NCAyODggNTc2IDI4OHoiIHAtaWQ9IjIxNzg0Ii8+PC9zdmc+" parent="1" vertex="1">
                    <mxGeometry x="838" y="630" width="56" height="56" as="geometry"/>
                </mxCell>
                <mxCell id="73" style="edgeStyle=none;html=1;entryX=1;entryY=0.5;entryDx=0;entryDy=0;fontColor=#1A1A1A;endArrow=none;endFill=0;strokeColor=#1A1A1A;strokeWidth=2;rounded=0;" parent="1" source="70" target="68" edge="1">
                    <mxGeometry relative="1" as="geometry">
                        <Array as="points">
                            <mxPoint x="910" y="658"/>
                        </Array>
                    </mxGeometry>
                </mxCell>
                <mxCell id="70" value="" style="shape=image;verticalLabelPosition=bottom;verticalAlign=top;imageAspect=0;aspect=fixed;image=data:image/svg+xml,PHN2ZyB4bWxucz0iaHR0cDovL3d3dy53My5vcmcvMjAwMC9zdmciIHhtbG5zOnhsaW5rPSJodHRwOi8vd3d3LnczLm9yZy8xOTk5L3hsaW5rIiB0PSIxNjQ1MzcyMjU2MTY0IiBjbGFzcz0iaWNvbiIgdmlld0JveD0iMCAwIDEzMzEgMTAyNCIgdmVyc2lvbj0iMS4xIiBwLWlkPSIyMzQ2MiIgd2lkdGg9IjI1OS45NjA5Mzc1IiBoZWlnaHQ9IjIwMCI+PGRlZnM+PHN0eWxlIHR5cGU9InRleHQvY3NzIi8+PC9kZWZzPjxwYXRoIGQ9Ik0xMDM5LjQ4OCAzNzAuNjg4Yy0yLjA5OTItNDUuNjE5Mi04LjU3Ni05Mi4wMzItMjguMDgzMi0xMzMuNjMyYTIxOS45MDQgMjE5LjkwNCAwIDAgMC00Mi45MDU2LTYxLjg0OTZjLTE2LjM4NC0xNy4wNzUyLTM1LjM1MzYtMzEuMjA2NC01NS4zNzI4LTQzLjQ2ODgtNDQuNDY3Mi0yNy4yMTI4LTk3LjUxMDQtNDUuMzM3Ni0yMTkuNDQzMi04Mi42ODhDNTcxLjc1MDQgMTEuNzUwNCA0OTkuMiAwIDQ5OS4yIDB2OTU1LjQ2ODhMNzA2Ljk0NCAxMDI0czAuMjU2LTUzMC4xMjQ4IDAuMjU2LTc5OC42Njg4di0xMC4xMzc2YzAtMjQuODA2NCAxOS41MDcyLTQ0LjggNDEuODU2LTQ0LjhoMS4yOGMyMi4xMTg0IDAgNDAuMzIgMjAuMDE5MiA0MC4zMiA0NC44VjU3MC42NzUyYzI4LjU5NTIgMTQuMTMxMiA3NS45Mjk2IDI0Ljc4MDggMTA4LjY3MiAyNC4yNjg4YTEyMS43NTM2IDEyMS43NTM2IDAgMCAwIDYyLjQxMjgtMTUuMjA2NGMxOS43NjMyLTEwLjkzMTIgMzYuMTQ3Mi0yNy43NTA0IDQ3Ljg0NjQtNDcuNDYyNCAxMy4yNjA4LTIyLjE0NCAyMS4zMjQ4LTQ3LjQ4OCAyNS43MjgtNzIuODA2NCA0Ljk0MDgtMjguOCA1LjE5NjgtNTguOTMxMiA0LjE3MjgtODguODA2NHpNMjI1LjQwOCA3ODMuNDYyNGM3MS4yNDQ4LTI2LjExMiAyMzIuMTkyLTc4LjY2ODggMjMyLjE5Mi03OC42Njg4di0xMjUuODQ5NnMtMTk4LjkxMiA2Ni4xMjQ4LTI4OS4zODI0IDk4LjkxODRjLTIyLjM0ODggOC4yNjg4LTQ0Ljk3OTIgMTUuNzQ0LTY2LjgxNiAyNS4zNDQtMjUuNDcyIDEwLjkzMTItNTAuNDMyIDIzLjE5MzYtNzMuMDYyNCAzOS40NDk2LTkuODgxNiA2LjkzNzYtMTguNzEzNiAxNS43NDQtMjMuOTEwNCAyNi45MzEyYTQ3LjM2IDQ3LjM2IDAgMCAwLTEuMzA1NiAzNi4yNzUyYzUuMTk2OCAxMy41OTM2IDE1LjA3ODQgMjQuODA2NCAyNi4yNjU2IDMzLjYxMjggMjAuMjc1MiAxNS43MTg0IDQ0LjQ0MTYgMjUuMzQ0IDY4LjYwOCAzMi41MTJhNjY2LjYyNCA2NjYuNjI0IDAgMCAwIDIyOS44NjI0IDM1LjQ4MTZjMzcuNzA4OC0wLjUxMiA5My41OTM2LTUuMDY4OCAxMjkuOTk2OC0xMS43MjQ4di0xMTJzLTI4LjU5NTIgNi42NTYtMTA3LjM2NjQgMzMuMzMxMmMtMTEuOTgwOCAzLjk5MzYtMjMuOTM2IDguNzgwOC0zNi40MDMyIDExLjQ2ODgtMTguNDU3NiA0LjI0OTYtMzcuNDUyOCA1LjU4MDgtNTYuMTY2NCA1Ljg2MjQtMTYuODk2LTAuODE5Mi0zNC4zMDQtMS44Njg4LTUwLjE3Ni04LjI2ODgtNS43MzQ0LTIuNjYyNC0xMS45NTUyLTUuODg4LTE0LjMxMDQtMTIuMjg4LTIuMDczNi01LjMyNDggMC43NjgtMTAuNjQ5NiA0LjQyODgtMTQuMzg3MiA3LjI3MDQtNy43MzEyIDE3LjY2NC0xMi4wMDY0IDI3LjU0NTYtMTZ6IiBwLWlkPSIyMzQ2MyIvPjxwYXRoIGQ9Ik0xMzMxLjIgNzUxLjc0NGMtMC4yNTYtMTYtOS42MjU2LTI5Ljg3NTItMjAuNTMxMi00MC4wMTI4LTE4LjQ1NzYtMTYuNzkzNi00MS4zNDQtMjcuNDY4OC02NC4yMzA0LTM1Ljk5MzYtMTQuMzEwNC01LjA2ODgtMjQuMTY2NC04LjgwNjQtMzguMjIwOC0xMy4zMzc2LTY1LjUzNi0yMS44NjI0LTEzNC45Mzc2LTI5Ljg3NTItMjAzLjU3MTItMzAuMTMxMi0yMC44MTI4IDAuNzkzNi02MC4wNTc2IDEuMzMxMi04MC42MTQ0IDMuNzM3Ni01Ni45MzQ0IDYuNjU2LTE3NC45NzYgNDEuMDYyNC0xNzQuOTc2IDQxLjA2MjR2MTMwLjEyNDhzMTc1LjUxMzYtNTcuNiAyNTAuODgtODQuNzg3MmMyNS4yNDE2LTguODA2NCA1Mi4yNzUyLTEyLjI4OCA3OC43OTY4LTEyLjI4OCAxNi44OTYgMC41Mzc2IDM0LjMwNCAxLjg2ODggNTAuNDMyIDguMjY4OCA1LjczNDQgMi40MDY0IDExLjcyNDggNS44ODggMTQuMzM2IDEyLjAzMiAyLjMwNCA2LjkxMi0yLjM1NTIgMTMuMzEyLTcuNTUyIDE3LjMwNTYtMTIuMjM2OCAxMC4xMzc2LTI3LjgyNzIgMTQuMTMxMi00Mi4xMzc2IDE5LjczNzYtMTA2LjU5ODQgMzguNjU2LTM0NS4wMTEyIDExOS4xOTM2LTM0NS4wMTEyIDExOS4xOTM2djEyNS4zMzc2czMwNC43MTY4LTEwNS42IDQ0NC4wODMyLTE1Ni44YzIzLjE0MjQtOC43ODA4IDQ2LjU0MDgtMTYuMjU2IDY4LjYzMzYtMjcuNzI0OCAyMC41MzEyLTEwLjY3NTIgNDEuMDg4LTIyLjkzNzYgNTYuNjc4NC00MC44MDY0IDguMDY0LTkuNiAxMy4wMDQ4LTIxLjMyNDggMTMuMDA0OC0zNC45MTg0eiIgcC1pZD0iMjM0NjQiLz48L3N2Zz4=" parent="1" vertex="1">
                    <mxGeometry x="873.6" y="524" width="72.8" height="56" as="geometry"/>
                </mxCell>
                <mxCell id="71" value="" style="endArrow=none;html=1;fontColor=#1A1A1A;strokeColor=#1A1A1A;strokeWidth=2;exitX=0.5;exitY=0;exitDx=0;exitDy=0;" parent="1" source="70" edge="1">
                    <mxGeometry width="50" height="50" relative="1" as="geometry">
                        <mxPoint x="910" y="520" as="sourcePoint"/>
                        <mxPoint x="910" y="480" as="targetPoint"/>
                    </mxGeometry>
                </mxCell>
                <mxCell id="75" style="edgeStyle=none;rounded=0;html=1;fontColor=#1A1A1A;endArrow=none;endFill=0;strokeColor=#1A1A1A;strokeWidth=2;" parent="1" source="74" edge="1">
                    <mxGeometry relative="1" as="geometry">
                        <mxPoint x="996.3799999999999" y="480" as="targetPoint"/>
                    </mxGeometry>
                </mxCell>
                <mxCell id="74" value="" style="shape=image;verticalLabelPosition=bottom;verticalAlign=top;imageAspect=0;aspect=fixed;image=data:image/svg+xml,PHN2ZyB4bWxucz0iaHR0cDovL3d3dy53My5vcmcvMjAwMC9zdmciIHhtbG5zOnhsaW5rPSJodHRwOi8vd3d3LnczLm9yZy8xOTk5L3hsaW5rIiB0PSIxNjQ1MzcyODE0NDIzIiBjbGFzcz0iaWNvbiIgdmlld0JveD0iMCAwIDE2MjEgMTAyNCIgdmVyc2lvbj0iMS4xIiBwLWlkPSIyNjE4NyIgd2lkdGg9IjMxNi42MDE1NjI1IiBoZWlnaHQ9IjIwMCI+PGRlZnM+PHN0eWxlIHR5cGU9InRleHQvY3NzIi8+PC9kZWZzPjxwYXRoIGQ9Ik0xMzczLjA1MSA4NTAuODhsMC03MzguODgxYzAtMjcuNjUxLTIwLjYwNi00OS45OTktNDYuMDY2LTQ5Ljk5OWwtMTAyNS4xNzEgMGMtMjUuNDU1IDAtNDYuMDY2IDIyLjM0OC00Ni4wNjYgNDkuOTk5bDAgNzM4Ljg4MS0xNTEuMDgyIDAgMCA2MS4xMjNjMCAyNy42NDcgMjAuNjQgNDkuOTk3IDQ2LjA2NiA0OS45OTdsMTMzMi4zNjQgMGMyNS40NSAwIDQ2LjA5MS0yMi4zNDggNDYuMDkxLTQ5Ljk5N2wwLTYxLjEyMy0xNTYuMTM2IDB6TTkxMS4yOCA4NzEuODY5bC0xODguNzExIDAgMC0zMi40NDkgMTg4LjcxMSAwIDAgMzIuNDQ5ek0xMjc4LjI2NyA3OTAuMTM3bC05MjcuNzA2IDAgMC02MjUuMDU3IDkyNy43MDYgMCAwIDYyNS4wNTd6TTEyNzguMjY3IDc5MC4xMzd6IiBwLWlkPSIyNjE4OCIvPjwvc3ZnPg==" parent="1" vertex="1">
                    <mxGeometry x="952" y="524" width="88.76" height="56" as="geometry"/>
                </mxCell>
                <mxCell id="77" style="edgeStyle=none;rounded=0;html=1;fontColor=#1A1A1A;endArrow=none;endFill=0;strokeColor=#1A1A1A;strokeWidth=2;" parent="1" source="76" edge="1">
                    <mxGeometry relative="1" as="geometry">
                        <mxPoint x="1078" y="480" as="targetPoint"/>
                    </mxGeometry>
                </mxCell>
                <mxCell id="76" value="" style="shape=image;verticalLabelPosition=bottom;verticalAlign=top;imageAspect=0;aspect=fixed;image=data:image/svg+xml,PHN2ZyB4bWxucz0iaHR0cDovL3d3dy53My5vcmcvMjAwMC9zdmciIHhtbG5zOnhsaW5rPSJodHRwOi8vd3d3LnczLm9yZy8xOTk5L3hsaW5rIiB0PSIxNjQ1MzcyODgyMDk1IiBjbGFzcz0iaWNvbiIgdmlld0JveD0iMCAwIDEwMjQgMTAyNCIgdmVyc2lvbj0iMS4xIiBwLWlkPSIyNzAzMCIgd2lkdGg9IjIwMCIgaGVpZ2h0PSIyMDAiPjxkZWZzPjxzdHlsZSB0eXBlPSJ0ZXh0L2NzcyIvPjwvZGVmcz48cGF0aCBkPSJNODIwLjQwOTQ0OSA3OTcuMjI4MzQ2cTAgMjUuMTk2ODUtMTAuMDc4NzQgNDYuODY2MTQydC0yNy43MTY1MzUgMzguMjk5MjEzLTQxLjMyMjgzNSAyNi4yMDQ3MjQtNTAuODk3NjM4IDkuNTc0ODAzbC0zNTcuNzk1Mjc2IDBxLTI3LjIxMjU5OCAwLTUwLjg5NzYzOC05LjU3NDgwM3QtNDEuMzIyODM1LTI2LjIwNDcyNC0yNy43MTY1MzUtMzguMjk5MjEzLTEwLjA3ODc0LTQ2Ljg2NjE0MmwwLTY3NS4yNzU1OTFxMC0yNS4xOTY4NSAxMC4wNzg3NC00Ny4zNzAwNzl0MjcuNzE2NTM1LTM4LjgwMzE1IDQxLjMyMjgzNS0yNi4yMDQ3MjQgNTAuODk3NjM4LTkuNTc0ODAzbDM1Ny43OTUyNzYgMHEyNy4yMTI1OTggMCA1MC44OTc2MzggOS41NzQ4MDN0NDEuMzIyODM1IDI2LjIwNDcyNCAyNy43MTY1MzUgMzguODAzMTUgMTAuMDc4NzQgNDcuMzcwMDc5bDAgNjc1LjI3NTU5MXpNNzM4Ljc3MTY1NCAxNzAuMzMwNzA5bC00NTUuNTU5MDU1IDAgMCA1NzcuNTExODExIDQ1NS41NTkwNTUgMCAwLTU3Ny41MTE4MTF6TTUxMC45OTIxMjYgNzc2LjA2Mjk5MnEtMjEuMTY1MzU0IDAtMzYuNzg3NDAyIDE1LjExODExdC0xNS42MjIwNDcgMzcuMjkxMzM5cTAgMjEuMTY1MzU0IDE1LjYyMjA0NyAzNi43ODc0MDJ0MzYuNzg3NDAyIDE1LjYyMjA0N3EyMi4xNzMyMjggMCAzNy4yOTEzMzktMTUuNjIyMDQ3dDE1LjExODExLTM2Ljc4NzQwMnEwLTIyLjE3MzIyOC0xNS4xMTgxMS0zNy4yOTEzMzl0LTM3LjI5MTMzOS0xNS4xMTgxMXpNNTkxLjYyMjA0NyA4NC42NjE0MTdxMC04LjA2Mjk5Mi01LjAzOTM3LTEyLjU5ODQyNXQtMTEuMDg2NjE0LTQuNTM1NDMzbC0xMjggMHEtNS4wMzkzNyAwLTEwLjU4MjY3NyA0LjUzNTQzM3QtNS41NDMzMDcgMTIuNTk4NDI1IDUuMDM5MzcgMTIuNTk4NDI1IDExLjA4NjYxNCA0LjUzNTQzM2wxMjggMHE2LjA0NzI0NCAwIDExLjA4NjYxNC00LjUzNTQzM3Q1LjAzOTM3LTEyLjU5ODQyNXoiIHAtaWQ9IjI3MDMxIi8+PC9zdmc+" parent="1" vertex="1">
                    <mxGeometry x="1050" y="524" width="56" height="56" as="geometry"/>
                </mxCell>
                <mxCell id="78" value="" style="shape=image;verticalLabelPosition=bottom;verticalAlign=top;imageAspect=0;aspect=fixed;image=data:image/svg+xml,PHN2ZyB4bWxucz0iaHR0cDovL3d3dy53My5vcmcvMjAwMC9zdmciIHhtbG5zOnhsaW5rPSJodHRwOi8vd3d3LnczLm9yZy8xOTk5L3hsaW5rIiB0PSIxNjQ1MzczMTU5MzQ1IiBjbGFzcz0iaWNvbiIgdmlld0JveD0iMCAwIDM4NDAgMTAyNCIgdmVyc2lvbj0iMS4xIiBwLWlkPSIyNzIxNyIgd2lkdGg9Ijc1MCIgaGVpZ2h0PSIyMDAiPjxkZWZzPjxzdHlsZSB0eXBlPSJ0ZXh0L2NzcyIvPjwvZGVmcz48cGF0aCBkPSJNMjI1Ni4wMzQ5MDkgMjQ5Ljg0NDM2NGEzOC40NTgxODIgMzguNDU4MTgyIDAgMCAwLTM3Ljg0MTQ1NCAzMC41OTJsLTEzNS4yMTQ1NDYgMzg2LjMyNzI3Mi0xMzIuOTU3MDkxLTM4NS4zNzMwOTFhNDEuNzM5NjM2IDQxLjczOTYzNiAwIDAgMC00MC45NDgzNjMtMzEuNTQ2MTgxaC00LjIwMDcyOGE0MC4yNzM0NTUgNDAuMjczNDU1IDAgMCAwLTM4Ljc3MjM2MyAzMS41NDYxODFsLTEzNC4wMTYgMzg1LjQzMTI3My0xMzMuMTA4MzY0LTM4NC4zNjA3MjdhNDEuMzIwNzI3IDQxLjMyMDcyNyAwIDAgMC0zOS45NDc2MzYtMzIuNTgxODE4IDM4LjgzMDU0NSAzOC44MzA1NDUgMCAwIDAtMzkuODQyOTA5IDM3LjY5MDE4MiA3My4zMDkwOTEgNzMuMzA5MDkxIDAgMCAwIDUuMTA4MzYzIDIxLjQ1NzQ1NGwxNjAuNTgxODE4IDQ0Ni4wNTY3MjdjOC4yMzg1NDUgMjMuMzU0MTgyIDI0LjU0MTA5MSAzNS42MTg5MDkgNDMuOTI3MjczIDM1LjYxODkwOWgyLjE1MjcyN2MyMC40MTAxODIgMCAzNS44MTY3MjctMTIuMjY0NzI3IDQyLjk3MzA5MS0zNS42MTg5MDlsMTMzLjA4NTA5MS0zNzkuMDU0NTQ1IDEzMS45MzMwOTEgMzc5LjA1NDU0NWM3LjIxNDU0NSAyMy4zNTQxODIgMjIuNTg2MTgyIDM1LjYxODkwOSA0My4wNTQ1NDYgMzUuNjE4OTA5aDMuMDYwMzYzYzE4LjQ1NTI3MyAwIDM0Ljc1NzgxOC0xMi4yNjQ3MjcgNDMuMDU0NTQ2LTM1LjYxODkwOWwxNjEuNjY0LTQ0Ny4wODA3MjdhNzUuNTIgNzUuNTIgMCAwIDAgNS4xMDgzNjMtMjEuNDU3NDU0IDM3LjczNjcyNyAzNy43MzY3MjcgMCAwIDAtMzguODUzODE4LTM2LjcwMTA5MXogbTg2MS4xOTU2MzYgMGMtNTcuMjA0MzY0IDAtMTQzLjUyMjkwOSA0MS40OTUyNzMtMTgyLjQ0NjU0NSAxMjkuMzk2MzYzdi05MC40ODQzNjNhMzkuMzA3NjM2IDM5LjMwNzYzNiAwIDAgMC00MC4wMTc0NTUtMzkuOTEyNzI4IDM5LjczODE4MiAzOS43MzgxODIgMCAwIDAtMzguODg4NzI3IDM5LjkxMjcyOHY0NjEuMzcwMTgxYTM5LjQ1ODkwOSAzOS40NTg5MDkgMCAxIDAgNzguOTA2MTgyIDB2LTE3OS4yYzAtMTUyLjM1NDkwOSA4My45Nzk2MzYtMjI5LjA3MzQ1NSAxODYuNTE5MjczLTI0MS4zMzgxODFhMzguOTkzNDU1IDM4Ljk5MzQ1NSAwIDAgMCAzNC45MDkwOTEtMzkuODMxMjczIDM3Ljg5OTYzNiAzNy44OTk2MzYgMCAwIDAtMzguOTgxODE5LTM5Ljg4OTQ1NXogbTI4Mi4zMDk4MTktMS4zODQ3MjhjLTE0My42NTA5MDkgMC0yNDkuMTU3ODE4IDEyMS40MjU0NTUtMjQ5LjE1NzgxOSAyNzIuMTUxMjczdjIuMDk0NTQ2YzAgMTYxLjgzODU0NSAxMTYuNTE0OTA5IDI3Mi4xOTc4MTggMjU5LjIgMjcyLjE5NzgxOGEyNjMuMTA5ODE4IDI2My4xMDk4MTggMCAwIDAgMTk1LjgxNjcyOC03OC45ODc2MzcgMzMuMTg2OTA5IDMzLjE4NjkwOSAwIDAgMCAxMi4xNDgzNjMtMjUuMjA0MzYzIDMzLjQxOTYzNiAzMy40MTk2MzYgMCAwIDAtNTYuMjk2NzI3LTI0LjQzNjM2NCAyMTEuMzc0NTQ1IDIxMS4zNzQ1NDUgMCAwIDEtMTQ5LjYwODcyNyA2MC43MTg1NDZjLTkyLjUzMjM2NCAwLTE3MS44MzQxODItNjMuNzIwNzI3LTE4Mi43ODQtMTc2Ljk1NDE4MmgzNzUuNTQwMzYzYTM2LjMwNTQ1NSAzNi4zMDU0NTUgMCAwIDAgMzYuMjAwNzI4LTM2LjUzODE4MmMwLTEzOC42NDcyNzMtODcuNDcwNTQ1LTI2NS4wMTgxODItMjQxLjA1ODkwOS0yNjUuMDE4MTgyeiBtLTE3MC43Mjg3MjggMjQzLjg5ODE4MmM5LjkyNTgxOC0xMDIuMjM3MDkxIDc4LjIzMTI3My0xNzguMDM2MzY0IDE2OC42MzQxODItMTc4LjAzNjM2MyAxMDMuNDgyMTgyIDAgMTU3Ljc1NDE4MiA4Mi44ODU4MTggMTY1LjgxODE4MiAxNzguMDM2MzYzaC0zMzQuNDUyMzY0ek0yNTM1LjU2MzYzNiAyNDkuOTYwNzI3Yy02Ny40MjEwOTEgMC0xMDYuNjU4OTA5IDcuNDgyMTgyLTE1OC43MDgzNjMgMzAuMDEwMTgyYTMyLjUwMDM2NCAzMi41MDAzNjQgMCAwIDAtMjEuNTE1NjM3IDMyLjY4NjU0NiAzNC45Nzg5MDkgMzQuOTc4OTA5IDAgMCAwIDM0LjgzOTI3MyAzMy42NDA3MjcgMzkuNjU2NzI3IDM5LjY1NjcyNyAwIDAgMCAxNC4xODQ3MjctMy4wOTUyNzMgMjY4LjYwMjE4MiAyNjguNjAyMTgyIDAgMCAxIDEyMy4wMzEyNzMtMjQuMDQwNzI3Yzk5LjAzNzA5MSAwIDE1Ny40NjMyNzMgNDkuMDAwNzI3IDE1Ny40NjMyNzMgMTQzLjcwOTA5MXYxOC40MzJhNTYwLjQ4ODcyNyA1NjAuNDg4NzI3IDAgMCAwLTE2Mi42MTgxODItMjIuNTA0NzI4Yy0xMzMuODE4MTgyIDAtMjI1Ljg2MTgxOCA1OS4xODI1NDUtMjI1Ljg2MTgxOCAxNzAuMjUxNjM3djIuMDQ4YzAgMTA4LjA0MzYzNiA5OS4yNDY1NDUgMTY0LjA3MjcyNyAxOTcuNDM0MTgyIDE2NC4wNzI3MjdhMjMxLjc5NjM2NCAyMzEuNzk2MzY0IDAgMCAwIDE5MS4wNjkwOTEtOTAuNzYzNjM2djUwLjI2OTA5MWEzNi4wNzI3MjcgMzYuMDcyNzI3IDAgMCAwIDM3LjU3MzgxOCAzNi42ODk0NTQgMzcuMzUyNzI3IDM3LjM1MjcyNyAwIDAgMCAzNy45MzQ1NDUtMzguNzE0MTgyVjQ2MS45NjM2MzZjMC02Ny4zMDQ3MjctMTguNDA4NzI3LTExOC4yNjAzNjQtNTQuMjQ4NzI3LTE1My45MTQxODEtMzguODE4OTA5LTM4Ljc3MjM2NC05Ni4xMDQ3MjctNTguMDg4NzI3LTE3MC41Nzc0NTUtNTguMDg4NzI4eiBtMTUwLjI5NTI3MyAzNDAuMzYzNjM3YzAgODMuNDkwOTA5LTc5Ljc5MDU0NSAxNDIuNjM4NTQ1LTE3Ni44NzI3MjcgMTQyLjYzODU0NS03MS42MzM0NTUgMC0xMzIuODg3MjczLTM4LjczNzQ1NS0xMzIuODg3MjczLTEwNC45NzE2MzZ2LTIuMDI0NzI4YzAtNjYuMTg3NjM2IDU1LjI3MjcyNy0xMDkuMDQ0MzY0IDE1NC4yNzQ5MDktMTA5LjA0NDM2M2E1NTQuODkxNjM2IDU1NC44OTE2MzYgMCAwIDEgMTU1LjQ1MDE4MiAyMi40MjMyNzN2NTAuOTY3Mjcyek0xMjk2Ljc0NDcyNyAyMzguNjI2OTA5YTI0Mi43MzQ1NDUgMjQyLjczNDU0NSAwIDAgMC0xNjcuNTYzNjM2IDcxLjA4NjU0NmMtMzQuMjkyMzY0LTQ0LjM0NjE4Mi04MS41NzA5MDktNzAuOTgxODE4LTE2MS41OTQxODItNzAuOTgxODE5LTg0LjQzMzQ1NSAwLTE1OC4zMzYgNzAuOTgxODE4LTE1OC4zMzYgNzAuOTgxODE5YTE4OS41MjE0NTUgMTg5LjUyMTQ1NSAwIDAgMC0xNDEuMTI1ODE4LTcwLjk4MTgxOWMtNzQuODMzNDU1IDAtMTM0LjI2MDM2NCAzMi44MTQ1NDUtMTcwLjUwNzYzNiAxMTUuNDc5MjczbC0xMDcuMDU0NTQ2IDI1MS43NTI3MjctMTM3LjQ0ODcyNy0zMjMuMDEzODE4YTc0LjYwMDcyNyA3NC42MDA3MjcgMCAwIDAtMTAwLjA3MjcyNy0zNy4yMzYzNjMgNzIuODMyIDcyLjgzMiAwIDAgMC0zNi42NDI5MSA5OS44MDUwOUwyODQuMTYgNzA5LjAyNjkwOWMyNi4zNzk2MzYgNTcuMDE4MTgyIDU0LjE3ODkwOSA4Ni44MzA1NDUgMTA2LjM0NDcyNyA4Ni44MzA1NDYgNTUuNzM4MTgyIDAgODAuMDM0OTA5LTMyLjUyMzYzNiAxMDYuMzkxMjczLTg2LjgzMDU0NmwxNDcuNzgxODE4LTMyMC45NTQxODJhMjEuMTU0OTA5IDIxLjE1NDkwOSAwIDAgMSAyMS4wNzM0NTUtMTMuNTMzMDkxQTIzLjI3MjcyNyAyMy4yNzI3MjcgMCAwIDEgNjg4Ljg3MjcyNyAzOTguMDhWNzA4LjY1NDU0NWMwIDQ3Ljg3MiAyNi42MjQgODcuMTU2MzY0IDc3Ljg1ODkwOSA4Ny4xNTYzNjRzNzguODU5NjM2LTM5LjI3MjcyNyA3OC44NTk2MzctODcuMTU2MzY0VjQ1NC41MTYzNjRjMC00OS4wMjQgMzUuMjIzMjczLTgwLjgzNzgxOCA4My4yMzQ5MDktODAuODM3ODE5QTc2LjI3NjM2NCA3Ni4yNzYzNjQgMCAwIDEgMTAwOC44NzI3MjcgNDU0LjUxNjM2NFY3MDguNjU0NTQ1YzAgNDcuODcyIDI2Ljc2MzYzNiA4Ny4xNTYzNjQgNzcuODU4OTA5IDg3LjE1NjM2NHM3OS4wMTA5MDktMzkuMjcyNzI3IDc5LjAxMDkwOS04Ny4xNTYzNjRWNDU0LjUxNjM2NGMwLTQ5LjAyNCAzNS4wODM2MzYtODAuODM3ODE4IDgzLjExODU0Ni04MC44Mzc4MTlhNzYuMzQ2MTgyIDc2LjM0NjE4MiAwIDAgMSA4MC4wMTE2MzYgODAuODM3ODE5VjcwOC42NTQ1NDVjMCA0Ny44NzIgMjYuNjkzODE4IDg3LjE1NjM2NCA3Ny44ODIxODIgODcuMTU2MzY0czc4Ljk0MTA5MS0zOS4yNzI3MjcgNzguOTQxMDkxLTg3LjE1NjM2NFY0MTkuNDA5NDU1Yy0wLjA1ODE4Mi0xMDYuMzA5ODE4LTg1Ljg0MTQ1NS0xODAuNzgyNTQ1LTE4OC45NTEyNzMtMTgwLjc4MjU0NnogbTI0MTUuNTU3ODE4IDkuODQ0MzY0YTY1LjYyOTA5MSA2NS42MjkwOTEgMCAwIDAtNjUuMzE0OTA5IDY1LjUyNDM2M3YwLjQ0MjE4MmE2NC45NjU4MTggNjQuOTY1ODE4IDAgMCAwIDY1LjMxNDkwOSA2NS4xNjM2MzcgNjUuNjI5MDkxIDY1LjYyOTA5MSAwIDAgMCA2NS40NDI5MS02NS42NTIzNjR2LTAuMjA5NDU1YTY1LjE2MzYzNiA2NS4xNjM2MzYgMCAwIDAtNjUuNDQyOTEtNjUuMjU2NzI3eiBtNTIuODc1NjM3IDY1LjUyNDM2M2E1Mi45MjIxODIgNTIuOTIyMTgyIDAgMSAxLTEwNS44MzI3MjcgMC4zMzc0NTV2LTAuMzI1ODE4YTUyLjkyMjE4MiA1Mi45MjIxODIgMCAxIDEgMTA1LjgzMjcyNy0wLjE3NDU0NnYwLjE3NDU0NnogbS00OS4wMzU2MzctMzIuNzU2MzYzaC0yMS44MDY1NDVhNi45ODE4MTggNi45ODE4MTggMCAwIDAtNy4wNCA2Ljk4MTgxOHY0OS43NTcwOTFhNi45ODE4MTggNi45ODE4MTggMCAwIDAgNy4wNCA2LjkyMzYzNiA2LjgzMDU0NSA2LjgzMDU0NSAwIDAgMCA2LjkyMzYzNi02LjkyMzYzNnYtMTMuNzU0MTgyaDExLjEyNDM2NGwxMy41NjggMTcuMTE3MDkxYTguNTY0MzY0IDguNTY0MzY0IDAgMCAwIDYuODQyMTgyIDMuNTg0IDYuNDgxNDU1IDYuNDgxNDU1IDAgMCAwIDYuNTk3ODE4LTYuMzg4MzY0IDguMzA4MzY0IDguMzA4MzY0IDAgMCAwLTIuMjQ1ODE4LTUuMzQxMDkxbC05LjYzNDkwOS0xMS43MDYxODFhMTkuMzc0NTQ1IDE5LjM3NDU0NSAwIDAgMCAxMi42MzcwOTEtMTkuMjExNjM3di0wLjE5NzgxOGExOS42MDcyNzMgMTkuNjA3MjczIDAgMCAwLTUuNTUwNTQ2LTE0LjM4MjU0NSAyNC43NzM4MTggMjQuNzczODE4IDAgMCAwLTE4LjQ1NTI3My02LjQ1ODE4MnogbTkuNzUxMjczIDIxLjc0ODM2M2E5LjAyOTgxOCA5LjAyOTgxOCAwIDAgMS0xMC41MzA5MDkgOC45MjUwOTFoLTE0LjE0OTgxOHYtMTguMTg3NjM2aDEzLjk2MzYzNmE5LjA4OCA5LjA4OCAwIDAgMSAxMC43NzUyNzMgOS4wNDE0NTR2MC4yMjEwOTF6IiBmaWxsPSIiIHAtaWQ9IjI3MjE4Ii8+PC9zdmc+" parent="1" vertex="1">
                    <mxGeometry x="362" y="220" width="209.5" height="56" as="geometry"/>
                </mxCell>
                <mxCell id="79" value="ESXI 虚拟化" style="text;html=1;strokeColor=none;fillColor=none;align=center;verticalAlign=middle;whiteSpace=wrap;rounded=0;sketch=0;fontColor=#1A1A1A;fontFamily=Helvetica;" parent="1" vertex="1">
                    <mxGeometry x="569.5" y="233" width="71" height="30" as="geometry"/>
                </mxCell>
            </root>
        </mxGraphModel>
    </diagram>
</mxfile>